<svg width="37px" height="24px" viewBox="0 0 37 24" version="1.1"
                                                        xmlns="http://www.w3.org/2000/svg"
                                                        xmlns:xlink="http://www.w3.org/1999/xlink">
                                                        <!-- Generator: Sketch 51.3 (57544) - http://www.bohemiancoding.com/sketch -->
                                                        <title>logo</title>
                                                        <desc>Created with Sketch.</desc>
                                                        <defs></defs>
                                                        <g id="Symbols" stroke="none" stroke-width="1" fill="none"
                                                            fill-rule="evenodd">
                                                            <g id="Footer"
                                                                transform="translate(-683.000000, -207.000000)"
                                                                fill="#FEFEFE">
                                                                <g transform="translate(0.000000, 112.000000)"
                                                                    id="rodape-p">
                                                                    <g transform="translate(0.000000, 81.000000)">
                                                                        <g id="logo"
                                                                            transform="translate(683.000000, 14.000000)">
                                                                            <path
                                                                                d="M36.7768051,15.8728404 C36.7422724,12.8813852 36.8556504,9.1990052 35.9867073,6.80472284 C33.8040504,0.791192437 26.0473484,-2.3617051 20.7127821,2.10165284 C19.8361362,2.83515285 19.1539639,3.81068723 18.3999567,4.67045109 C17.6460361,3.81068723 16.9638638,2.83515285 16.0872179,2.10165284 C10.7526516,-2.3617051 2.99594964,0.791192437 0.813119566,6.80472284 C-0.0558235359,9.1990052 0.0577275945,12.8813852 0.0231948955,15.8728404 C-0.0289936194,20.3950298 0.0231948955,24 0.0231948955,24 L5.72091713,24 C5.72091713,24 5.68889432,19.344924 5.72091713,15.3636566 C5.72853336,14.4301815 5.60174037,10.7781633 5.86432736,9.31838818 C6.31654127,6.80472284 8.07165055,5.50983039 10.6527751,5.50983039 C13.176172,5.50983039 14.9510142,6.84015928 15.4247786,9.3288815 C15.4429537,9.42435347 15.4596575,9.53229702 15.4753227,9.64901366 C15.5191161,10.2903101 15.5883546,11.3271702 15.6075683,12.2407768 C15.674643,15.4219719 15.5982211,20.2581866 15.6183868,22.3553017 C15.622368,22.7520694 15.6221949,23.1804892 15.6221949,24 L15.6317152,24 L21.1683714,24 L21.1778917,24 C21.1778917,23.1818654 21.1777186,22.7520694 21.1814401,22.3553017 C21.2018655,20.2581866 21.1251839,15.4219719 21.1925183,12.2407768 C21.211732,11.3271702 21.2808839,10.2901381 21.3247638,9.64901366 C21.3401694,9.53229702 21.3570463,9.42435347 21.3752214,9.3288815 C21.8489858,6.84015928 23.623828,5.50983039 26.1471384,5.50983039 C28.7282629,5.50983039 30.4833722,6.80472284 30.9354995,9.31838818 C31.1981731,10.7781633 31.0714666,14.4301815 31.0789963,15.3636566 C31.1111057,19.344924 31.0789963,24 31.0789963,24 L36.7768051,24 C36.7768051,24 36.8289936,20.3950298 36.7768051,15.8728404"
                                                                                id="Fill-1"></path>
                                                                        </g>
                                                                    </g>
                                                                </g>
                                                            </g>
                                                        </g>
                                                    </svg>