<svg width="396" height="380" viewBox="0 0 396 380" fill="none" xmlns="http://www.w3.org/2000/svg">
<g clip-path="url(#clip0_62_444)">
<rect width="396" height="380" fill="#F5EAD8"/>
<g filter="url(#filter0_f_62_444)">
<ellipse cx="154" cy="330" rx="90" ry="20" fill="url(#paint0_radial_62_444)"/>
</g>
<path d="M459.744 232.881C459.744 340.922 459.532 381.204 423.518 381.204L189.429 381.204C156.207 374.469 156.2 325.488 156.2 232.881" stroke="#C6C6C3" stroke-width="10.2896"/>
<path d="M140.765 220.019H470.034V235.454C359.564 258.33 288.236 258.634 140.765 235.454V220.019Z" fill="#6D140F"/>
<path d="M108.208 212.302C130.885 124.84 67.8937 86.2535 27.5794 114.55C40.1776 50.24 141.619 56.531 284.583 119.695L476.076 63.102C497.551 61.7701 515.731 79.3439 515.13 89.7238C543.601 90.8025 537.151 110.73 544.106 114.55C478.596 88.8258 438.281 136.027 460.958 231.206C394.738 243.624 354.812 238.568 284.583 233.779L259.387 231.206C189.732 235.985 161.103 226.723 108.208 212.302Z" fill="#010103"/>
<path d="M7 196.867C7 47.6673 138.193 65.6744 115.041 204.585L84.1723 441.247L32.7241 443.819L7 196.867Z" fill="#D27854"/>
<path d="M341.413 124.84C493.592 85.2243 524.654 67.315 552.351 104.261C441.292 116.022 467.461 171.143 459.744 240.598H421.158C417.462 196.313 403.646 171.089 341.413 124.84Z" fill="#131313"/>
<path d="M159.5 -26.9323H435.379L449.455 3.93667L426.934 29.6608L282.248 42.5228L151.055 29.6608L159.5 -26.9323Z" fill="#D27854"/>
<path d="M148.483 27.0883L292 40L435.379 19.3711L449.455 50.24L426.934 75.9641L282.248 88.8262L151.055 75.9641L148.483 27.0883Z" fill="url(#paint1_linear_62_444)"/>
<path d="M359.42 -214.079C374.382 -224.52 385.903 -220.155 408.296 -206.362C474.814 -199.005 478.817 -163.003 485.469 -98.3209C497.345 -57.2429 504.639 -34.2366 508.62 7.14789C531.713 57.9408 516.337 71.4582 503.475 79.1754L428.875 107.472L405.724 66.3134L441.738 7.14792C419.393 -43.4145 412.477 -68.7999 449.455 -88.0312V-98.3209C439.715 -61.1337 438.58 -40.719 405.724 -1.20822C367.183 10.8366 345.881 15.9256 307.972 24.5159L194.786 10.7378L163.917 -8.92546C164.88 3.3049 163.427 10.3455 143.338 24.5159L73.8828 7.14792C70.1975 -21.306 79.4907 -56.1343 99.6069 -83.5254C86.2275 -114.339 92.5792 -131.812 99.6069 -163.27C123.688 -194.187 137.19 -211.523 166.49 -206.362C185.582 -222.491 197.415 -225.597 220.51 -219.863C220.51 -168.415 238.198 -134.974 256.524 -114.394C282.261 -85.493 298.523 -97.4479 318.262 -119.539C348.229 -156.36 343.986 -178.705 359.42 -214.079Z" fill="#D27854"/>
<path d="M419.56 -14.2616L398.006 3.93664L313.117 14.2263L297.682 -6.35301" stroke="#7E2B0A" stroke-width="5.14482"/>
<path d="M341.413 57.9572C365.016 65.712 379.422 66.3791 405.724 65.6744L428.875 106.833C397.994 128.281 378.722 138.289 341.413 153.136L313.117 57.9573C295.11 47.6676 303.567 39.5354 318.262 42.5227L341.413 57.9572Z" fill="#D27854"/>
<path d="M245.082 51.1469C223.873 59.0374 208.131 61.2468 184.496 60.5298L161.345 104.261C189.094 126.084 199.846 125.168 233.372 140.275L275.133 66.8514C291.314 56.3817 283.714 48.1071 270.51 51.1468L245.082 51.1469Z" fill="#D27854"/>
<path d="M75.95 -26.9323H158.681L143.169 9.08149C156.479 22.164 163.838 33.9696 176.779 63.1021L163.852 106.833C132.642 95.3002 120.186 88.8262 94.0475 75.9642C67.1991 71.122 56.5304 62.9948 73.8827 6.50908C69.4067 -4.56569 72.3795 -15.9137 75.95 -26.9323Z" fill="#D27854"/>
<path d="M169.062 -37.222C163.917 1.36419 161.345 6.50906 143.338 14.2263C157.383 20.6355 161.436 19.4904 163.917 29.6606C165.163 40.5225 169.95 47.9039 176.779 60.5295" stroke="#632F19" stroke-width="10.2896"/>
<path d="M176.779 60.5297C206.071 60.1137 221.238 58.85 243.662 52.8124V145.419C213.34 133.586 195.714 124.491 163.917 106.833L176.779 60.5297Z" fill="#D27854"/>
<path d="M300.255 65.6745H343.986V153.136C322.077 151.203 311.862 149.024 302.827 140.274C289.965 135.13 284.82 119.695 302.827 122.268H295.11C277.103 117.123 276.548 107.527 295.11 109.405V106.833C261.669 114.55 271.958 83.6814 295.11 91.3986V86.2538C274.531 86.2538 282.553 71.2556 300.255 65.6745Z" fill="url(#paint2_linear_62_444)"/>
<path d="M264.241 65.6745L241.09 65.6747L241.988 145.513C262.647 145.725 263.915 141.427 273.259 133.605C285.803 129.741 292.209 114.891 275.128 115.695L282.334 116.447C299.682 113.084 301.196 103.594 283.668 103.654L283.935 101.096C314.361 112.029 307.956 80.3245 285.537 85.7445L286.071 80.6274C305.287 82.6324 286.071 63.1021 264.241 65.6745Z" fill="url(#paint3_linear_62_444)"/>
<path d="M340.084 151.204C339.186 150.387 337.255 150.744 336.092 150.744C334.716 150.744 333.34 150.744 331.964 150.744C331.112 150.744 330.142 150.875 329.325 150.634C328.602 150.42 327.987 149.978 327.215 149.978C326.806 149.978 326.397 149.978 325.989 149.978C325.387 149.978 324.786 149.978 324.184 149.978C323.255 149.978 322.09 150.299 321.205 150.132C320.054 149.914 319.24 149.059 318.022 149.059C317.404 149.059 316.785 149.059 316.167 149.059C314.883 149.059 314.185 149.137 313.068 148.395C311.606 147.423 310.336 146.323 308.838 145.425C305.841 143.627 302.496 142.286 299.858 139.926C299.298 139.425 298.41 138.985 297.952 138.454C297.422 137.839 296.654 137.46 296.062 136.905C295.854 136.71 295.681 136.485 295.432 136.343C295.006 136.099 294.593 135.754 294.207 135.432C292.723 134.196 292.683 132.588 291.738 131.015C291.633 130.839 291.675 130.615 291.636 130.419C291.441 129.422 291.136 128.422 291.066 127.406C291.012 126.62 291.166 125.544 291.398 124.784C291.466 124.562 292.263 122.969 292.47 122.895C293.531 122.516 294.804 122.401 295.935 122.401C297.328 122.401 298.721 122.401 300.114 122.401C301.087 122.401 301.217 122.396 301.944 123.099C303.137 124.253 304.491 125.237 305.757 126.316C306.975 127.355 307.894 128.661 309.374 129.38C310.847 130.096 312.837 129.755 314.422 129.755C315.18 129.755 316.155 129.614 316.864 129.908C318.421 130.553 320.061 130.98 321.614 131.67C323.183 132.367 324.563 133.324 326.227 133.704C327.148 133.915 328.122 133.859 329.053 134.045" stroke="#7E2B0A" stroke-width="2.05793" stroke-linecap="round"/>
<path d="M327.214 112.596C324.996 112.596 322.777 112.596 320.558 112.596C318.38 112.596 316.338 112.937 314.498 111.608C313.538 110.915 312.473 110.535 311.392 110.076C310.673 109.772 310.084 109.255 309.34 109.038C307.815 108.593 306.409 108.459 304.838 108.459C301.269 108.459 297.756 108.153 294.19 108.153C292.504 108.153 290.819 108.153 289.134 108.153C286.138 108.153 283.142 108.153 280.146 108.153C279.533 108.153 278.512 108.376 278.009 107.974C277.391 107.479 276.714 106.998 276.162 106.433C275.41 105.664 274.621 104.781 273.966 103.939C273.646 103.528 273.761 102.642 273.285 102.484" stroke="#7E2B0A" stroke-width="2.05793" stroke-linecap="round"/>
<path d="M280.639 90.9934C289.741 90.9934 298.843 90.9934 307.944 90.9934C312.627 90.9934 317.318 91.453 322.005 91.453" stroke="#7E2B0A" stroke-width="2.05793" stroke-linecap="round"/>
<path d="M336.101 66.9397C333.669 66.7816 331.218 66.8474 328.798 66.5482C326.146 66.2205 323.531 65.6479 320.865 65.4417C317.801 65.2048 315.839 62.439 313.732 60.471C312.032 58.8826 310.312 57.0504 308.37 55.7556" stroke="#7E2B0A" stroke-width="2.05793" stroke-linecap="round"/>
<path d="M338.098 73.0595C335.147 72.5018 330.365 66.1737 327.376 66.1737C326.134 66.1737 324.948 65.8672 323.699 65.8672C322.451 65.8672 321.203 65.8672 319.954 65.8672C315.962 65.8672 311.97 65.8672 307.978 65.8672C305.445 65.8672 302.911 65.8672 300.378 65.8672C299.342 65.8672 298.306 65.8672 297.271 65.8672C296.774 65.8672 296.529 66.7016 296.181 67.0163C295.534 67.6019 294.288 67.6152 293.458 67.7398C292.47 67.8879 291.43 68.6315 290.632 69.2038C289.843 69.769 288.927 69.9368 288.146 70.5401C287.328 71.1722 285.852 72.132 285.389 73.0595C285.261 73.3159 284.983 73.4854 284.776 73.6809C284.191 74.2333 283.677 74.8487 283.176 75.5023C282.512 76.3679 282.018 77.0949 282.018 78.175C282.018 79.3631 281.921 80.785 282.784 81.6477" stroke="#7E2B0A" stroke-width="2.05793" stroke-linecap="round"/>
<path d="M292.59 121.482C291.755 121.482 290.113 121.82 289.432 121.243C288.624 120.56 287.741 119.839 286.887 119.218C285.264 118.037 283.548 117.037 282.12 115.609C281.549 115.037 281.045 114.557 280.554 113.974C280.044 113.368 280.926 112.503 281.099 111.983" stroke="#7E2B0A" stroke-width="2.05793" stroke-linecap="round"/>
<path d="M308.983 55.1427C307.916 55.1427 306.756 54.618 305.919 53.9511C304.932 53.1657 303.76 52.2036 302.974 51.2274C302.561 50.7151 301.762 50.3121 302.003 49.5592C302.31 48.6029 302.81 47.702 303.008 46.7163" stroke="#7E2B0A" stroke-width="2.05793" stroke-linecap="round"/>
<path d="M279.567 90.9934C279.138 90.9934 278.058 90.7787 277.728 91.0785C277.211 91.5488 277.066 92.5311 276.69 93.1383C276.327 93.7239 275.636 93.9727 275.277 94.5512C274.832 95.2677 275.172 96.567 274.511 97.0877C273.958 97.5231 274.106 97.4833 274.511 97.8878" stroke="#7E2B0A" stroke-width="2.05793" stroke-linecap="round"/>
<path d="M282.379 82.1689C282.974 82.7327 283.779 83.1939 284.273 83.8523C284.406 84.0299 284.885 84.3696 285.083 84.4415C285.371 84.5462 285.539 84.8536 285.798 85.0201C286.251 85.3113 286.487 85.3884 287.024 85.3884C287.615 85.3884 288.206 85.3884 288.797 85.3884C289.127 85.3884 289.605 85.2941 289.902 85.4304C290.507 85.7088 291.051 86.1516 291.701 86.3247C292.094 86.4297 292.63 86.3352 293.032 86.3352C293.663 86.3352 294.423 86.1864 295.025 86.3142C295.462 86.4068 295.594 86.7026 295.972 86.9086C296.709 87.3106 297.534 87.3256 298.339 87.5241C299.274 87.7546 300.197 87.9347 301.159 87.9449C303.028 87.9648 304.917 88.0396 306.798 88.0396C307.672 88.0396 308.132 88.58 308.681 89.2706C308.988 89.656 309.364 89.9119 309.765 90.1964C309.898 90.2905 310.172 90.3995 310.249 90.5541C310.4 90.8565 309.716 90.1377 309.439 89.9439C308.586 89.3476 307.892 89.0812 306.877 89.0812C306.328 89.0812 305.789 89.0117 305.241 88.9918C303.936 88.9443 302.623 88.9865 301.317 88.9865C300.234 88.9865 299.115 89.0708 298.039 88.9339C296.992 88.8006 295.971 88.7024 294.915 88.7024C294.59 88.7024 294.274 88.6364 293.952 88.6078C293.692 88.5847 293.515 88.3461 293.321 88.1974C292.847 87.8349 292.333 87.4724 291.753 87.3032C291.283 87.1657 290.764 87.3021 290.312 87.1664C289.992 87.0704 289.703 86.7917 289.46 86.5772C289.218 86.3643 289.062 85.9882 288.718 85.9617C288.428 85.9394 287.559 85.8618 287.85 85.8618C289.074 85.8618 290.298 85.8618 291.522 85.8618C292.258 85.8618 293.464 85.5906 294.047 86.1248C294.095 86.1692 294.309 86.2768 294.194 86.3773C293.856 86.6732 293.605 86.5274 293.558 87.1243C293.514 87.6656 294.298 88.211 294.625 88.5446C294.819 88.7422 296.048 89.7112 296.025 89.986C295.986 90.4411 291.391 89.8697 291.227 89.8598C288.966 89.7222 286.658 89.8387 284.394 89.8387C283.2 89.8387 282.006 89.8387 280.811 89.8387C280.032 89.8387 279.714 89.9234 279.317 90.6804C279.131 91.0357 278.936 92.0165 278.402 92.0165" stroke="#7E2B0A" stroke-width="2.05793" stroke-linecap="round"/>
<path d="M274.898 97.5084C274.358 98.0983 273.922 98.837 273.625 99.5916C273.425 100.102 273.496 100.518 273.552 101.064C273.698 102.495 274.461 103.226 275.467 104.231" stroke="#7E2B0A" stroke-width="2.05793" stroke-linecap="round"/>
<path d="M281.053 111.996C281.438 111.996 282.399 111.923 282.684 111.638C282.964 111.358 282.822 111.238 282.474 111.238" stroke="#7E2B0A" stroke-width="2.05793" stroke-linecap="round"/>
<path d="M281.148 111.238C282.031 111.238 283.051 111.378 283.705 110.665C283.897 110.456 284.006 110.175 284.199 109.976C284.371 109.798 284.608 109.672 284.788 109.492C285.185 109.095 285.719 109.06 286.261 109.06" stroke="#7E2B0A" stroke-width="2.05793" stroke-linecap="round"/>
<path d="M341.009 151.89C342.184 152.014 343.37 152.016 344.551 152.002C344.783 151.999 345.045 151.972 345.231 151.815C345.933 151.221 346.924 151.633 347.557 150.873C348.079 150.248 347.761 150.206 348.643 150.206C349.326 150.206 349.803 150.071 350.439 149.894C351.056 149.723 351.625 149.582 352.229 149.364C352.685 149.199 352.566 149.123 352.709 148.772C352.805 148.536 353.105 148.529 353.245 148.354C353.507 148.027 354.604 147.943 355.029 147.848C355.605 147.72 356.001 147.293 356.488 147.056C357.142 146.739 358.113 146.792 358.609 146.165C358.984 145.69 359.762 145.786 360.28 145.578C361.009 145.287 361.748 145.008 362.538 144.936C362.925 144.901 363.174 144.402 363.592 144.262C364.273 144.035 364.992 144.177 365.532 143.695C365.723 143.523 366.211 143.397 366.436 143.302C366.887 143.111 367.237 142.822 367.64 142.547C367.939 142.343 368.352 142.243 368.538 141.942C368.698 141.682 368.996 141.517 369.274 141.425C369.767 141.26 370.313 141.111 370.758 140.888" stroke="#7E2B0A" stroke-width="2.05793" stroke-linecap="round"/>
<path d="M292.538 99.1158L307.972 88.8262L310.318 90.7997L297.682 104.261L292.538 99.1158Z" fill="#848A8A"/>
<path d="M297.682 104.261C297.682 105.681 293.958 106.833 292.538 106.833C289.965 106.833 289.965 103.109 289.965 101.688C289.965 100.268 291.117 99.1158 292.537 99.1158C293.958 99.1158 297.682 102.84 297.682 104.261Z" fill="#785033"/>
<path d="M281.707 96.1643C273.049 90.1962 277.469 80.0105 270.017 80.9081C265.556 81.4453 265.429 87.9712 260.936 87.9715C254.583 87.972 251.583 79.8586 252.863 73.8463" stroke="#848A8A" stroke-opacity="0.8" stroke-width="5.14482"/>
<path d="M171.634 -26.9323L184.496 -1.20815L261.669 16.7987" stroke="#7E2B0A" stroke-width="5.14482"/>
</g>
<defs>
<filter id="filter0_f_62_444" x="60" y="306" width="188" height="48" filterUnits="userSpaceOnUse" color-interpolation-filters="sRGB">
<feFlood flood-opacity="0" result="BackgroundImageFix"/>
<feBlend mode="normal" in="SourceGraphic" in2="BackgroundImageFix" result="shape"/>
<feGaussianBlur stdDeviation="2" result="effect1_foregroundBlur_62_444"/>
</filter>
<radialGradient id="paint0_radial_62_444" cx="0" cy="0" r="1" gradientUnits="userSpaceOnUse" gradientTransform="translate(154 330) rotate(90) scale(29.5 132.75)">
<stop stop-color="#FCD586"/>
<stop offset="1" stop-color="#FCD586" stop-opacity="0"/>
</radialGradient>
<linearGradient id="paint1_linear_62_444" x1="295.11" y1="37.378" x2="298.969" y2="88.8262" gradientUnits="userSpaceOnUse">
<stop stop-color="#D27854"/>
<stop offset="1" stop-color="#632F19"/>
</linearGradient>
<linearGradient id="paint2_linear_62_444" x1="274.531" y1="111.978" x2="349.131" y2="124.84" gradientUnits="userSpaceOnUse">
<stop stop-color="#A35E42"/>
<stop offset="0.765625" stop-color="#D27854"/>
</linearGradient>
<linearGradient id="paint3_linear_62_444" x1="302.618" y1="108.217" x2="231.54" y2="112.239" gradientUnits="userSpaceOnUse">
<stop stop-color="#A35E42"/>
<stop offset="0.765625" stop-color="#D27854"/>
</linearGradient>
<clipPath id="clip0_62_444">
<rect width="396" height="380" fill="white"/>
</clipPath>
</defs>
</svg>
