<svg width="396" height="380" viewBox="0 0 396 380" fill="none" xmlns="http://www.w3.org/2000/svg">
<g clip-path="url(#clip0_62_652)">
<rect width="396" height="380" fill="#F5EAD8"/>
<g filter="url(#filter0_f_62_652)">
<ellipse cx="154" cy="330" rx="90" ry="20" fill="url(#paint0_radial_62_652)"/>
</g>
<path d="M125.173 261.838C250.016 253.88 320.14 254.701 445.991 264.808V324.219H125.173V261.838Z" fill="#6D140F"/>
<path d="M125.173 276.69C62.7919 276.69 74.0396 368.405 134.377 528.672" stroke="#C6C6C3" stroke-width="17.8232"/>
<path d="M184.584 318.278H220.23L294.493 437.099L184.584 395.512V318.278Z" fill="#9D5131"/>
<path d="M350.934 339.072C350.934 383.367 292.59 448.981 249.935 448.981C207.28 448.981 172.702 413.073 172.702 368.777C172.702 324.481 207.28 288.573 249.935 288.573C292.59 288.573 350.934 294.776 350.934 339.072Z" fill="#9D5131"/>
<path d="M347.963 292.281C365.24 280.224 378.544 285.265 404.403 301.192C481.216 309.689 485.839 351.262 493.519 425.955C507.234 473.39 515.657 499.957 520.254 547.747C546.921 606.401 529.166 622.01 514.313 630.922L428.168 663.598L401.433 616.069L443.02 547.747C417.217 489.359 409.231 460.045 451.932 437.837V425.955C440.685 468.897 439.375 492.472 401.433 538.097C356.928 552.006 332.328 557.883 288.552 567.803L157.849 551.892L122.203 529.186C123.314 543.309 121.637 551.439 98.4384 567.803L18.234 547.747C13.9784 514.889 24.7098 474.671 47.9394 443.04C32.4892 407.458 39.824 387.281 47.9394 350.954C75.7478 315.252 91.3385 295.232 125.173 301.192C147.22 282.567 160.885 278.981 187.554 285.602C187.554 345.013 207.979 383.63 229.142 407.394C258.862 440.768 277.641 426.963 300.435 401.453C335.039 358.933 330.14 333.131 347.963 292.281Z" fill="#D27854"/>
<path d="M336.081 327.189C294.553 476.086 235.083 481.657 199.436 339.071C241.023 475.716 298.174 435.486 336.081 327.189Z" stroke="#C4CBD3" stroke-width="1.78232"/>
<path d="M190.524 226.191C202.407 110.341 353.904 131.134 344.992 223.221V282.631H187.554L190.524 226.191Z" fill="#E8AC48"/>
<path d="M208.348 241.044L321.228 244.015V261.838L333.111 279.661L336.081 324.219C325.253 356.571 313.826 374.815 291.523 407.394C267.888 423.366 257.17 422.96 232.112 407.394C217.841 375.189 199.971 357.202 196.466 324.219V279.661L208.348 261.838V241.044Z" fill="#D27854"/>
<path d="M196.466 285.602L205.378 315.307L210.003 317.616" stroke="black" stroke-width="3.56464"/>
<path d="M333.11 279.661L327.169 318.278L318.258 321.248" stroke="black" stroke-width="3.56464"/>
<path d="M274.888 328.337V312.373C283.531 309.395 290.299 307.71 297.132 307.591C303.97 307.471 310.964 308.918 320.04 312.346V328.407C304.544 331.961 294.083 331.381 274.888 328.337Z" fill="#6D140F" stroke="black" stroke-width="2.37643"/>
<path d="M350.934 276.69C353.904 285.602 342.022 324.219 336.081 327.189C334.441 327.189 333.111 301.387 333.111 291.543C333.111 281.7 336.081 267.779 344.993 261.838C346.633 261.838 350.934 266.847 350.934 276.69Z" fill="#D27854"/>
<path d="M175.672 282.631C171.813 291.543 188.643 327.189 196.362 330.16C198.493 330.16 196.362 301.387 196.362 291.543C196.362 281.7 200.021 273.72 184.584 264.808C178.643 264.808 175.672 272.788 175.672 282.631Z" fill="#D27854"/>
<path d="M209.536 328.337V312.373C218.179 309.395 224.947 307.71 231.78 307.591C238.618 307.471 245.612 308.918 254.688 312.346V328.407C239.192 331.961 228.731 331.381 209.536 328.337Z" fill="#6D140F" stroke="black" stroke-width="2.37643"/>
<path d="M273.7 320.06C265.621 317.098 261.82 317.351 255.877 320.06" stroke="black" stroke-width="3.56464"/>
<path d="M296.614 251.508C320.323 215.945 270.535 215.945 282.389 232.541" stroke="#D27854" stroke-width="5.94107"/>
<path d="M282.611 359.865C276.67 362.836 267.759 368.777 255.876 359.865" stroke="#9D5131" stroke-width="1.78232"/>
<path d="M241.024 386.6C255.877 371.748 273.7 374.718 285.582 386.6" stroke="#632F19" stroke-width="1.78232"/>
</g>
<defs>
<filter id="filter0_f_62_652" x="60" y="306" width="188" height="48" filterUnits="userSpaceOnUse" color-interpolation-filters="sRGB">
<feFlood flood-opacity="0" result="BackgroundImageFix"/>
<feBlend mode="normal" in="SourceGraphic" in2="BackgroundImageFix" result="shape"/>
<feGaussianBlur stdDeviation="2" result="effect1_foregroundBlur_62_652"/>
</filter>
<radialGradient id="paint0_radial_62_652" cx="0" cy="0" r="1" gradientUnits="userSpaceOnUse" gradientTransform="translate(154 330) rotate(90) scale(29.5 132.75)">
<stop stop-color="#FCD586"/>
<stop offset="1" stop-color="#FCD586" stop-opacity="0"/>
</radialGradient>
<clipPath id="clip0_62_652">
<rect width="396" height="380" fill="white"/>
</clipPath>
</defs>
</svg>
