<svg width="396" height="380" viewBox="0 0 396 380" fill="none" xmlns="http://www.w3.org/2000/svg">
<g clip-path="url(#clip0_62_548)">
<rect width="396" height="380" fill="#F5EAD8"/>
<g filter="url(#filter0_f_62_548)">
<ellipse cx="154" cy="330" rx="90" ry="20" fill="url(#paint0_radial_62_548)"/>
</g>
<path d="M14.94 437.47C41.5899 334.684 -32.4376 289.338 -79.8152 322.592C-65.0097 247.014 54.205 254.408 222.217 328.638L447.261 262.13C472.498 260.565 493.864 281.217 493.158 293.416C526.617 294.684 519.037 318.102 527.211 322.592C450.222 292.361 402.844 347.832 429.494 459.687C351.672 474.281 304.75 468.339 222.217 462.71L192.606 459.687C110.748 465.303 77.1026 454.418 14.94 437.47Z" fill="#010103"/>
<path d="M83.4334 -79.4822C19.9478 -79.4821 31.3946 13.856 92.8004 176.96" stroke="#C6C6C3" stroke-width="18.1387"/>
<line x1="43.4478" y1="82.0892" x2="87.8024" y2="111.659" stroke="#9D5131" stroke-width="12.0925" stroke-linecap="round"/>
<path d="M-104 419.332C-104 243.991 50.1788 265.153 22.9708 428.401L-13.3066 706.528L-73.7689 709.551L-104 419.332Z" fill="#D27854"/>
<path d="M289.005 334.685C467.847 288.128 504.35 267.081 536.9 310.5C406.383 324.321 437.137 389.101 428.068 470.725H382.721C378.378 418.68 362.142 389.037 289.005 334.685Z" fill="#131313"/>
<path d="M143.895 -37.1583H180.172L255.75 83.7663L143.895 41.4427V-37.1583Z" fill="#9D5131"/>
<path d="M75.2194 156.321H399.434L415.976 192.598L389.509 222.829L219.473 237.945L65.2945 222.829L75.2194 156.321Z" fill="#D27854"/>
<path d="M62.2711 219.806L231 229L399.434 210.737L415.975 247.014L389.509 277.245L219.473 292.361L65.2942 277.245L62.2711 219.806Z" fill="url(#paint1_linear_62_548)"/>
<path d="M313.19 -15.9966C313.19 29.0831 253.814 95.8586 210.404 95.8586C166.994 95.8586 131.803 59.3142 131.803 14.2345C131.803 -30.8452 166.994 -67.3895 210.404 -67.3895C253.814 -67.3895 313.19 -61.0763 313.19 -15.9966Z" fill="#9D5131"/>
<path d="M310.167 -63.6155C327.749 -75.8856 341.289 -70.7553 367.606 -54.5462C445.778 -45.8998 450.483 -3.59012 458.299 72.4246C472.257 120.7 480.829 147.737 485.507 196.372C512.646 256.064 494.577 271.95 479.461 281.019L391.791 314.274L364.583 265.904L406.906 196.372C380.647 136.951 372.519 107.118 415.976 84.517V72.4246C404.53 116.127 403.196 140.119 364.583 186.552C319.29 200.707 294.255 206.688 249.704 216.783L116.687 200.591L80.41 177.483C81.5411 191.856 79.8345 200.13 56.2251 216.783L-25.399 196.372C-29.7299 162.933 -18.8086 122.002 4.83225 89.8124C-10.8914 53.5998 -3.42677 33.0661 4.83225 -3.90408C33.1329 -40.2375 48.9995 -60.6117 83.4332 -54.5462C105.871 -73.5014 119.777 -77.1509 146.919 -70.4126C146.919 -9.95035 167.705 29.3501 189.242 53.535C219.489 87.5 238.6 73.4505 261.797 47.4888C297.014 4.21627 292.028 -22.0428 310.167 -63.6155Z" fill="#D27854"/>
<line x1="421.52" y1="74.1634" x2="376.142" y2="114.499" stroke="#9D5131" stroke-width="12.0925" stroke-linecap="round"/>
<path d="M366.067 258.162C363.875 260.682 364.141 264.501 366.661 266.692C369.181 268.883 373 268.617 375.191 266.098L366.067 258.162ZM412.475 201.391L415.272 206.751L422.328 203.069L416.889 197.259L412.475 201.391ZM389.75 122.471C388.671 131.006 387.17 137.804 385.936 144.2C384.727 150.467 383.74 156.505 384.107 162.709C384.87 175.625 391.365 187.69 408.061 205.523L416.889 197.259C400.779 180.051 396.687 170.612 396.178 161.996C395.908 157.434 396.612 152.699 397.81 146.49C398.983 140.411 400.603 133.03 401.747 123.988L389.75 122.471ZM409.678 196.031C400.456 200.843 394.175 205.766 389.719 211.071C385.235 216.41 382.884 221.802 381.101 227.026C377.565 237.382 376.223 246.484 366.067 258.162L375.191 266.098C387.32 252.151 389.453 239.988 392.545 230.933C394.075 226.451 395.826 222.602 398.979 218.848C402.158 215.062 407.046 211.044 415.272 206.751L409.678 196.031Z" fill="#632F19"/>
<path d="M141.499 151.86C139.194 138.518 138.638 131.07 137.849 117.795L147.582 151.86L152.448 117.795L153.665 154.293" stroke="#7E2B0A" stroke-width="3.64986"/>
<path d="M163.398 151.86L162.182 123.878L167.048 116.578H176.781L177.998 151.86" stroke="#7E2B0A" stroke-width="3.64986"/>
<line x1="177.998" y1="134.827" x2="160.965" y2="134.827" stroke="#7E2B0A" stroke-width="2.43324"/>
<path d="M188.947 153.077L188.947 115.361L202.33 151.86L203.546 115.361" stroke="#7E2B0A" stroke-width="3.64986"/>
<path d="M232.745 125.094L227.879 117.795L215.713 117.794L214.496 150.643L227.879 150.643L232.745 143.343L232.171 124.232" stroke="#7E2B0A" stroke-width="3.64986"/>
<path d="M243.695 151.86V122.661L248.562 117.795H254.645V134.827H250.995L257.078 150.643" stroke="#7E2B0A" stroke-width="3.64986"/>
<line x1="243.695" y1="134.511" x2="250.995" y2="134.511" stroke="#7E2B0A" stroke-width="3.06588"/>
<line x1="256.469" y1="136.044" x2="256.469" y2="116.578" stroke="#7E2B0A" stroke-width="3.64986"/>
<path d="M268.027 149.427V122.661L275.327 116.578H283.843V149.427" stroke="#7E2B0A" stroke-width="3.64986"/>
<line x1="268.027" y1="133.611" x2="282.627" y2="133.611" stroke="#7E2B0A" stroke-width="4.86648"/>
<path d="M315.475 148.345L314.259 133.611L306.959 131.178L313.042 120.228L295.368 138.477L297.226 89.8125L294.789 148.345" stroke="#7E2B0A" stroke-width="4.86648"/>
<path d="M337.374 114.145H325.208V128.744M334.941 148.21H323.992L325.208 128.744M336.158 128.744H325.208" stroke="#7E2B0A" stroke-width="3.64986"/>
<path d="M298.074 -28.0893C255.811 123.443 195.288 129.113 159.011 -15.9968C201.334 123.066 259.496 82.124 298.074 -28.0893Z" stroke="#C4CBD3" stroke-width="1.81387"/>
<path d="M380.843 171.212L355.513 192.598L255.75 204.691L237.612 180.506" stroke="#7E2B0A" stroke-width="6.04623"/>
<path d="M168.08 -115.759L282.959 -112.736V-94.5975L295.051 -76.4589L298.074 -31.1122C287.055 1.81239 275.425 20.3798 252.728 53.535C228.674 69.7902 217.766 69.3764 192.265 53.535C177.741 20.7602 159.555 2.455 155.988 -31.1122V-76.4589L168.08 -94.5975V-115.759Z" fill="#D27854"/>
<ellipse cx="334.351" cy="174.46" rx="9.06934" ry="6.04623" fill="#632F19"/>
<ellipse cx="134.826" cy="168.413" rx="9.06934" ry="6.04623" fill="#632F19"/>
<path d="M289.005 256.084C316.743 265.197 333.673 265.981 364.583 265.153L391.791 313.523C355.499 338.729 332.85 350.49 289.005 367.939L255.751 256.084C234.589 243.991 244.528 234.434 261.797 237.945L289.005 256.084Z" fill="#D27854"/>
<path d="M175.796 248.08C150.871 257.353 132.37 259.95 104.595 259.107L77.3868 310.5C109.998 336.147 122.634 335.07 162.034 352.823L211.111 266.536C230.127 254.232 221.196 244.508 205.678 248.08L175.796 248.08Z" fill="#D27854"/>
<path d="M-22.9697 156.321H74.2568L56.0268 198.644C71.6679 214.019 80.3163 227.893 95.5251 262.13L80.3335 313.523C43.6557 299.969 29.0168 292.361 -1.70139 277.245C-33.2538 271.555 -45.7917 262.004 -25.3992 195.621C-30.6594 182.606 -27.1657 169.27 -22.9697 156.321Z" fill="#D27854"/>
<path d="M86.4562 144.228C80.41 189.575 77.3869 195.621 56.2251 204.691C72.7315 212.223 77.4939 210.877 80.41 222.829C81.8744 235.594 87.4998 244.269 95.5256 259.107" stroke="#632F19" stroke-width="12.0925"/>
<path d="M95.5253 259.107C129.95 258.618 147.774 257.133 174.126 250.037V358.869C138.492 344.964 117.778 334.275 80.4097 313.523L95.5253 259.107Z" fill="#D27854"/>
<path d="M240.635 265.153H292.028V367.939C266.28 365.667 254.275 363.106 243.658 352.823C228.543 346.777 222.496 328.638 243.658 331.661H234.589C213.427 325.615 212.774 314.338 234.589 316.546V313.523C195.288 322.592 207.381 286.315 234.589 295.384V289.338C210.404 289.338 219.832 271.712 240.635 265.153Z" fill="url(#paint2_linear_62_548)"/>
<path d="M198.312 265.153L171.104 265.153L172.16 358.98C196.438 359.228 197.929 354.178 208.91 344.985C223.651 340.444 231.179 322.992 211.106 323.937L219.574 324.821C239.962 320.869 241.742 309.716 221.143 309.787L221.457 306.78C257.213 319.629 249.686 282.37 223.339 288.739L223.966 282.726C246.549 285.082 223.966 262.13 198.312 265.153Z" fill="url(#paint3_linear_62_548)"/>
<path d="M287.442 365.668C286.387 364.708 284.118 365.128 282.751 365.128C281.134 365.128 279.517 365.128 277.9 365.128C276.898 365.128 275.759 365.281 274.799 364.998C273.949 364.747 273.226 364.227 272.318 364.227C271.838 364.227 271.358 364.227 270.878 364.227C270.171 364.227 269.464 364.227 268.757 364.227C267.664 364.227 266.295 364.604 265.256 364.407C263.903 364.151 262.947 363.147 261.515 363.147C260.788 363.147 260.061 363.147 259.334 363.147C257.826 363.147 257.005 363.239 255.693 362.367C253.974 361.225 252.482 359.932 250.722 358.876C247.2 356.763 243.269 355.187 240.169 352.414C239.511 351.825 238.467 351.308 237.928 350.684C237.305 349.961 236.403 349.516 235.708 348.863C235.463 348.634 235.26 348.37 234.968 348.203C234.466 347.916 233.981 347.511 233.527 347.133C231.783 345.68 231.736 343.79 230.626 341.941C230.503 341.735 230.551 341.471 230.506 341.241C230.277 340.07 229.918 338.894 229.836 337.7C229.772 336.776 229.953 335.512 230.226 334.619C230.306 334.358 231.242 332.486 231.487 332.398C232.733 331.953 234.229 331.818 235.558 331.818C237.195 331.818 238.832 331.818 240.469 331.818C241.612 331.818 241.766 331.813 242.62 332.638C244.022 333.994 245.613 335.151 247.101 336.42C248.532 337.64 249.612 339.175 251.352 340.021C253.083 340.862 255.422 340.461 257.284 340.461C258.175 340.461 259.32 340.295 260.155 340.641C261.983 341.399 263.911 341.9 265.736 342.711C267.58 343.531 269.202 344.655 271.158 345.102C272.24 345.349 273.384 345.283 274.479 345.502" stroke="#7E2B0A" stroke-width="2.41849" stroke-linecap="round"/>
<path d="M272.318 320.295C269.711 320.295 267.103 320.295 264.496 320.295C261.936 320.295 259.536 320.696 257.374 319.135C256.245 318.32 254.994 317.873 253.723 317.334C252.879 316.977 252.186 316.369 251.312 316.114C249.519 315.591 247.868 315.434 246.021 315.434C241.827 315.434 237.698 315.074 233.507 315.074C231.527 315.074 229.546 315.074 227.565 315.074C224.044 315.074 220.523 315.074 217.002 315.074C216.283 315.074 215.083 315.337 214.492 314.863C213.765 314.282 212.969 313.716 212.321 313.053C211.437 312.149 210.51 311.112 209.74 310.122C209.364 309.638 209.499 308.598 208.94 308.412" stroke="#7E2B0A" stroke-width="2.41849" stroke-linecap="round"/>
<path d="M217.583 294.908C228.279 294.908 238.975 294.908 249.672 294.908C255.175 294.908 260.688 295.448 266.197 295.448" stroke="#7E2B0A" stroke-width="2.41849" stroke-linecap="round"/>
<path d="M282.761 266.64C279.903 266.454 277.023 266.531 274.178 266.18C271.062 265.795 267.989 265.122 264.856 264.879C261.255 264.601 258.95 261.351 256.473 259.038C254.475 257.171 252.454 255.018 250.172 253.496" stroke="#7E2B0A" stroke-width="2.41849" stroke-linecap="round"/>
<path d="M285.108 273.832C281.64 273.177 276.02 265.74 272.508 265.74C271.049 265.74 269.654 265.38 268.187 265.38C266.72 265.38 265.253 265.38 263.786 265.38C259.094 265.38 254.403 265.38 249.712 265.38C246.734 265.38 243.757 265.38 240.779 265.38C239.562 265.38 238.345 265.38 237.128 265.38C236.544 265.38 236.256 266.36 235.848 266.73C235.087 267.418 233.623 267.434 232.647 267.58C231.487 267.754 230.264 268.628 229.326 269.301C228.399 269.965 227.323 270.162 226.405 270.871C225.444 271.614 223.709 272.742 223.164 273.832C223.013 274.133 222.687 274.333 222.444 274.562C221.757 275.211 221.152 275.935 220.563 276.703C219.784 277.72 219.203 278.574 219.203 279.844C219.203 281.24 219.089 282.911 220.103 283.925" stroke="#7E2B0A" stroke-width="2.41849" stroke-linecap="round"/>
<path d="M231.627 330.738C230.645 330.738 228.716 331.135 227.915 330.458C226.967 329.655 225.928 328.807 224.925 328.077C223.017 326.69 221.001 325.514 219.323 323.836C218.651 323.164 218.059 322.6 217.483 321.915C216.883 321.203 217.919 320.186 218.123 319.575" stroke="#7E2B0A" stroke-width="2.41849" stroke-linecap="round"/>
<path d="M250.892 252.776C249.638 252.776 248.275 252.159 247.291 251.376C246.132 250.453 244.754 249.322 243.83 248.175C243.345 247.573 242.406 247.099 242.69 246.214C243.05 245.09 243.638 244.032 243.87 242.873" stroke="#7E2B0A" stroke-width="2.41849" stroke-linecap="round"/>
<path d="M216.322 294.908C215.818 294.908 214.549 294.656 214.161 295.008C213.553 295.561 213.383 296.715 212.941 297.429C212.515 298.117 211.702 298.409 211.281 299.089C210.758 299.931 211.157 301.458 210.38 302.07C209.731 302.582 209.905 302.535 210.38 303.01" stroke="#7E2B0A" stroke-width="2.41849" stroke-linecap="round"/>
<path d="M219.627 284.537C220.327 285.2 221.273 285.742 221.853 286.516C222.009 286.724 222.573 287.124 222.805 287.208C223.144 287.331 223.341 287.692 223.646 287.888C224.178 288.23 224.455 288.321 225.086 288.321C225.781 288.321 226.475 288.321 227.17 288.321C227.557 288.321 228.119 288.21 228.468 288.37C229.18 288.697 229.819 289.218 230.582 289.421C231.045 289.545 231.675 289.434 232.146 289.434C232.888 289.434 233.781 289.259 234.489 289.409C235.002 289.518 235.158 289.865 235.602 290.107C236.468 290.58 237.438 290.598 238.384 290.831C239.483 291.102 240.568 291.313 241.698 291.325C243.894 291.349 246.114 291.437 248.325 291.437C249.351 291.437 249.893 292.072 250.538 292.883C250.898 293.336 251.34 293.637 251.812 293.971C251.967 294.082 252.289 294.21 252.38 294.392C252.558 294.747 251.754 293.902 251.428 293.675C250.426 292.974 249.61 292.661 248.418 292.661C247.772 292.661 247.139 292.579 246.495 292.556C244.961 292.5 243.418 292.549 241.883 292.549C240.611 292.549 239.295 292.648 238.032 292.488C236.8 292.331 235.601 292.216 234.359 292.216C233.978 292.216 233.606 292.138 233.228 292.104C232.923 292.077 232.714 291.797 232.486 291.622C231.93 291.196 231.325 290.77 230.644 290.571C230.091 290.41 229.481 290.57 228.95 290.41C228.574 290.298 228.234 289.97 227.948 289.718C227.665 289.468 227.481 289.026 227.077 288.995C226.736 288.968 225.714 288.877 226.057 288.877C227.495 288.877 228.933 288.877 230.372 288.877C231.238 288.877 232.654 288.559 233.339 289.186C233.396 289.238 233.647 289.365 233.512 289.483C233.115 289.831 232.82 289.659 232.764 290.361C232.713 290.997 233.634 291.638 234.019 292.03C234.247 292.262 235.691 293.401 235.664 293.724C235.618 294.259 230.218 293.587 230.026 293.576C227.368 293.414 224.657 293.551 221.995 293.551C220.592 293.551 219.188 293.551 217.785 293.551C216.868 293.551 216.495 293.65 216.029 294.54C215.811 294.958 215.581 296.11 214.954 296.11" stroke="#7E2B0A" stroke-width="2.41849" stroke-linecap="round"/>
<path d="M210.836 302.564C210.201 303.258 209.688 304.126 209.34 305.012C209.105 305.612 209.188 306.101 209.253 306.743C209.425 308.424 210.322 309.284 211.504 310.465" stroke="#7E2B0A" stroke-width="2.41849" stroke-linecap="round"/>
<path d="M218.069 319.59C218.521 319.59 219.65 319.505 219.986 319.169C220.314 318.841 220.148 318.7 219.738 318.7" stroke="#7E2B0A" stroke-width="2.41849" stroke-linecap="round"/>
<path d="M218.181 318.7C219.218 318.7 220.417 318.864 221.185 318.026C221.411 317.78 221.539 317.451 221.766 317.216C221.968 317.007 222.247 316.859 222.459 316.647C222.925 316.181 223.552 316.14 224.19 316.14" stroke="#7E2B0A" stroke-width="2.41849" stroke-linecap="round"/>
<path d="M288.529 366.474C289.911 366.619 291.305 366.622 292.693 366.606C292.965 366.603 293.273 366.571 293.491 366.386C294.317 365.688 295.481 366.172 296.225 365.279C296.838 364.544 296.465 364.495 297.501 364.495C298.303 364.495 298.865 364.336 299.612 364.128C300.336 363.927 301.005 363.762 301.715 363.505C302.251 363.312 302.111 363.222 302.279 362.809C302.392 362.533 302.745 362.524 302.91 362.318C303.217 361.934 304.506 361.835 305.006 361.724C305.683 361.574 306.148 361.071 306.721 360.793C307.489 360.421 308.631 360.483 309.213 359.745C309.654 359.187 310.569 359.3 311.177 359.056C312.033 358.714 312.903 358.386 313.831 358.301C314.285 358.26 314.578 357.674 315.069 357.51C315.87 357.243 316.715 357.41 317.349 356.843C317.574 356.641 318.148 356.493 318.411 356.381C318.942 356.157 319.353 355.817 319.826 355.494C320.178 355.254 320.664 355.137 320.882 354.783C321.07 354.478 321.42 354.284 321.746 354.175C322.327 353.982 322.968 353.806 323.491 353.545" stroke="#7E2B0A" stroke-width="2.41849" stroke-linecap="round"/>
<path d="M231.566 304.453L249.705 292.361L252.462 294.68L237.612 310.5L231.566 304.453Z" fill="#848A8A"/>
<path d="M237.612 310.5C237.612 312.169 233.235 313.523 231.566 313.523C228.542 313.523 228.542 309.146 228.542 307.477C228.542 305.807 229.896 304.453 231.566 304.453C233.235 304.453 237.612 308.83 237.612 310.5Z" fill="#785033"/>
<path d="M218.838 300.985C208.663 293.971 213.857 282.001 205.099 283.056C199.857 283.687 199.707 291.356 194.428 291.357C186.961 291.357 183.436 281.822 184.94 274.757" stroke="#848A8A" stroke-opacity="0.8" stroke-width="6.04623"/>
<path d="M89.4792 156.321L104.595 186.552L195.288 207.714" stroke="#7E2B0A" stroke-width="6.04623"/>
<path d="M243.658 5.16516C237.612 8.18826 228.543 14.2347 216.45 5.16516" stroke="#9D5131" stroke-width="1.81387"/>
<path d="M204.358 35.3964C212.011 32.4549 213.199 30.8858 219.473 29.3502C221.75 30.8306 225.22 31.1385 228.543 29.3502C234.911 31.1816 238.155 32.5779 243.658 35.3964H204.358Z" fill="#632F19"/>
<path d="M207.381 35.3964H243.658C231.566 41.4426 219.258 43.4688 204.358 35.3964H207.381Z" fill="#7E2B0A"/>
<path d="M201.334 32.3732C216.45 17.2577 234.588 20.2807 246.681 32.3732" stroke="#632F19" stroke-width="1.81387"/>
</g>
<defs>
<filter id="filter0_f_62_548" x="60" y="306" width="188" height="48" filterUnits="userSpaceOnUse" color-interpolation-filters="sRGB">
<feFlood flood-opacity="0" result="BackgroundImageFix"/>
<feBlend mode="normal" in="SourceGraphic" in2="BackgroundImageFix" result="shape"/>
<feGaussianBlur stdDeviation="2" result="effect1_foregroundBlur_62_548"/>
</filter>
<radialGradient id="paint0_radial_62_548" cx="0" cy="0" r="1" gradientUnits="userSpaceOnUse" gradientTransform="translate(154 330) rotate(90) scale(29.5 132.75)">
<stop stop-color="#FCD586"/>
<stop offset="1" stop-color="#FCD586" stop-opacity="0"/>
</radialGradient>
<linearGradient id="paint1_linear_62_548" x1="234.589" y1="231.899" x2="239.123" y2="292.361" gradientUnits="userSpaceOnUse">
<stop stop-color="#D27854"/>
<stop offset="1" stop-color="#632F19"/>
</linearGradient>
<linearGradient id="paint2_linear_62_548" x1="210.404" y1="319.569" x2="298.074" y2="334.684" gradientUnits="userSpaceOnUse">
<stop stop-color="#A35E42"/>
<stop offset="0.765625" stop-color="#D27854"/>
</linearGradient>
<linearGradient id="paint3_linear_62_548" x1="243.412" y1="315.15" x2="159.881" y2="319.875" gradientUnits="userSpaceOnUse">
<stop stop-color="#A35E42"/>
<stop offset="0.765625" stop-color="#D27854"/>
</linearGradient>
<clipPath id="clip0_62_548">
<rect width="396" height="380" fill="white"/>
</clipPath>
</defs>
</svg>
