<svg width="2050" height="2050" viewBox="0 0 2050 2050" fill="none" xmlns="http://www.w3.org/2000/svg">
<g clip-path="url(#clip0_315_111)">
<rect width="2050" height="2050" fill="black"/>
<g filter="url(#filter0_f_315_111)">
<path d="M979.5 347.881C934 355.799 897 395.424 884.5 428.319C972.667 467.227 1177 560.109 1219 604.677C1261 649.245 1259.17 813.544 1253 890.123V1358.62C1646.2 1260.99 1646.5 874.029 1597.5 692.751C1463.9 306.921 1135 320.822 979.5 347.881Z" fill="#101010" fill-opacity="0.8" stroke="#101010" stroke-opacity="0.8" stroke-width="3"/>
<path d="M1262.5 1165.28L1026 1146.18L670 1309.59L704.5 1358.94L731 1411.46L747.5 1507.5L670 1602.47L870.5 1840.16L1325.5 1671.97L1243.5 1489.46L1262.5 1165.28Z" fill="#101010" fill-opacity="0.8"/>
<path d="M776 526.474C819.6 466.626 877.5 439.284 901 433.094C1178.6 433.094 1243.33 511.618 1241 550.88L1143.5 654.872C1157.9 676.944 1175.5 763.815 1182.5 804.492C1182.5 891.081 1156.5 956.943 1143.5 979.05L1170 1052.27C1191.2 1039.96 1251.83 1013.18 1279.5 1001.33C1410.7 991.147 1414.5 1096.13 1400 1149.89C1382 1213.14 1247.5 1225.41 1182.5 1223.64C1111.3 1230.86 1126.83 1170.76 1143.5 1139.81C1095.1 1170.37 1077.67 1218.69 1075 1239.03C1029.4 1327.74 943 1326.22 905.5 1314.37C854.3 1295.27 725.833 1306.41 668 1314.37C551.2 1296.54 491 1253.53 475.5 1234.25C444.7 1206.24 462.667 1163.51 475.5 1145.65V1036.88C457.1 997.407 483.167 966.316 498.5 955.705C486.1 914.532 503.667 885.139 514 875.589L562.5 852.244L538 815.634C535.2 789.318 547.5 759.748 554 748.252L615.5 729.152C628.7 716.842 670.667 696.433 690 687.767L693 641.077V620.385L706 584.837L776 526.474Z" fill="#101010" fill-opacity="0.8"/>
<path d="M668 1314.37C551.2 1296.54 491 1253.53 475.5 1234.25C444.7 1206.24 462.667 1163.51 475.5 1145.65V1036.88C457.1 997.407 483.167 966.316 498.5 955.705C486.1 914.532 503.667 885.139 514 875.589L562.5 852.244L538 815.634C535.2 789.318 547.5 759.748 554 748.252L615.5 729.152C628.7 716.842 670.667 696.433 690 687.767L693 641.077V620.385L706 584.837L776 526.474C819.6 466.626 877.5 439.284 901 433.094C1178.6 433.094 1243.33 511.618 1241 550.88L1143.5 654.872C1157.9 676.944 1175.5 763.815 1182.5 804.492C1182.5 891.081 1156.5 956.943 1143.5 979.05L1170 1052.27C1191.2 1039.96 1251.83 1013.18 1279.5 1001.33C1410.7 991.147 1414.5 1096.13 1400 1149.89C1382 1213.14 1247.5 1225.41 1182.5 1223.64C1111.3 1230.86 1126.83 1170.76 1143.5 1139.81C1095.1 1170.37 1077.67 1218.69 1075 1239.03C1029.4 1327.74 943 1326.22 905.5 1314.37C854.3 1295.27 725.833 1306.41 668 1314.37ZM668 1314.37C685.833 1325.16 724.5 1366.05 736.5 1443.3C739 1487.51 755.3 1602.04 800.5 1706.46" stroke="#101010" stroke-opacity="0.8" stroke-width="7"/>
<path d="M1232.5 772.128L1172 739.232C1191.6 793.138 1157.5 901.41 1138 948.807L1143.5 999.742L1172 1054.92L1256 1010.88V890.445L1232.5 772.128Z" fill="#101010" fill-opacity="0.8"/>
<path d="M806.5 614.018C806.5 586.004 828.5 574.756 839.5 572.634C979.5 621.022 1027.5 687.59 1034 714.826C995.2 652.007 866.167 621.446 806.5 614.018Z" fill="#0E0603" fill-opacity="0.8" stroke="#0E0603" stroke-opacity="0.8" stroke-width="5.1304"/>
<path d="M948.558 619.605C943.818 621.458 939.407 624.127 934.712 626.107C927.476 629.159 919.772 630.568 912.145 632.015C900.541 634.217 890.728 638.75 880.151 643.801" stroke="#0E0603" stroke-opacity="0.8" stroke-width="3" stroke-linecap="round"/>
<path d="M958.103 613.978C956.874 615.045 955.181 615.159 953.684 615.509C946.876 617.104 940.24 619.39 933.475 621.168C927.838 622.649 922.05 624.106 916.211 624.106" stroke="#0E0603" stroke-opacity="0.8" stroke-width="3" stroke-linecap="round"/>
<path d="M932.119 613.415H939.543" stroke="#101010" stroke-opacity="0.8" stroke-width="3" stroke-linecap="round"/>
<path d="M928.938 610.039C929.944 613.598 934.595 613.978 937.422 613.978" stroke="#0E0603" stroke-opacity="0.8" stroke-width="3" stroke-linecap="round"/>
<path d="M891.288 628.045C890.239 629.035 887.415 629.345 886.103 629.733C884.059 630.338 881.453 631.421 879.356 631.421C878.12 631.421 873.93 631.415 873.081 632.015C872.729 632.265 872.737 633.288 871.461 633.641C870.611 633.876 869.896 634.235 869.016 634.235" stroke="#0E0603" stroke-opacity="0.8" stroke-width="3" stroke-linecap="round"/>
<path d="M863.712 630.859H877.5" stroke="#0E0603" stroke-opacity="0.8" stroke-width="3" stroke-linecap="round"/>
<path d="M836.138 571.775C834.078 572.066 836.984 572.9 837.729 572.9C838.878 572.9 840.027 572.9 841.176 572.9C843.385 572.9 845.595 572.9 847.804 572.9" stroke="#101010" stroke-opacity="0.8" stroke-width="3" stroke-linecap="round"/>
<path d="M848.334 576.276C851.611 577.821 856.96 576.839 860.531 576.839" stroke="#101010" stroke-opacity="0.8" stroke-width="3" stroke-linecap="round"/>
<path d="M868.485 584.717H881.742" stroke="#0E0603" stroke-opacity="0.8" stroke-width="3" stroke-linecap="round"/>
<path d="M885.454 593.72H900.302" stroke="#0E0603" stroke-opacity="0.8" stroke-width="3" stroke-linecap="round"/>
<path d="M888.105 589.781C888.212 588.88 889.578 589.219 890.227 589.219" stroke="#0E0603" stroke-opacity="0.8" stroke-width="3" stroke-linecap="round"/>
<path d="M921.514 605.537C921.6 604.074 922.522 604.412 923.635 604.412" stroke="#0E0603" stroke-opacity="0.8" stroke-width="3" stroke-linecap="round"/>
<path d="M804.321 612.289C805.828 612.489 805.381 615.787 805.381 616.791C805.381 619.639 808.993 619.578 811.214 620.167" stroke="#0E0603" stroke-opacity="0.8" stroke-width="3" stroke-linecap="round"/>
<path d="M811.745 615.103C813.938 616.335 817.257 620.161 818.108 622.418" stroke="#0E0603" stroke-opacity="0.8" stroke-width="3" stroke-linecap="round"/>
<path d="M733.431 610.397L710.384 610.563L696.014 613.659L683.515 611.188C685.757 605.314 690.612 593.262 692.096 592.041C693.58 590.82 714.293 588.546 724.464 587.562C734.205 592.437 734.501 604.817 733.431 610.397Z" fill="#101010" fill-opacity="0.8" stroke="#101010" stroke-opacity="0.8" stroke-width="5.1304"/>
<path d="M599 756.741C629.333 767.883 692.9 794.518 704.5 811.92" stroke="#101010" stroke-opacity="0.8" stroke-width="3"/>
<path d="M718.5 814.573C741.5 837.388 743.1 907.423 637.5 869.222" stroke="#101010" stroke-opacity="0.8" stroke-width="3"/>
<path d="M601.5 819.879C607.1 822.85 630.5 841.632 641.5 850.652L635.5 855.958C623 859.495 595.9 861.263 587.5 840.041C579.1 818.818 593.333 817.757 601.5 819.879Z" fill="#101010" fill-opacity="0.8" stroke="#101010" stroke-opacity="0.8" stroke-width="3"/>
<path d="M551.664 805.539C554.931 807.56 553.083 817.457 559.5 823.593L562.5 833.674C555.207 836.08 548.397 833.69 543.496 819.254C538.596 804.817 546.899 804.096 551.664 805.539Z" fill="#101010" fill-opacity="0.8" stroke="#101010" stroke-opacity="0.8" stroke-width="3"/>
<path d="M571.5 844.285C561.667 830.844 542.1 800.142 542.5 784.861" stroke="#101010" stroke-opacity="0.8" stroke-width="5"/>
<g filter="url(#filter1_f_315_111)">
<path d="M704 703.684L786 677.686L773.5 703.684L739 731.274L712 764.169L719 801.309L665 770.005L605 750.213L704 703.684Z" fill="#101010" fill-opacity="0.8"/>
</g>
<path d="M598 983.294C577.879 969.817 533.109 947.46 515 965.848C529.923 971.017 567.416 981.743 598 983.294Z" fill="#101010" fill-opacity="0.8"/>
<path d="M845.5 699.97L841 723.846C851.333 733.396 886.8 753.558 946 757.802" stroke="#0E0603" stroke-opacity="0.8" stroke-width="3"/>
<path d="M806.447 727.673L842.55 724.532C851.868 744.085 913.055 755.008 943.027 758.096C942.747 757.667 942.863 757.628 943.573 758.151C943.392 758.133 943.21 758.114 943.027 758.096C944.509 760.367 957.081 773.571 951.043 772.013C891.437 775.249 829.81 743.801 806.447 727.673Z" fill="#101010" fill-opacity="0.8"/>
<path d="M1138 653.811L1213.5 587.49C1298.5 690.951 1258.33 913.613 1250 1009.29L1206.5 1030.51C1195.5 971.091 1164.5 820.728 1172.5 785.923C1180.5 751.117 1156.5 690.951 1138 653.811Z" fill="url(#paint0_linear_315_111)" fill-opacity="0.8"/>
<path d="M903.5 429.911L1234.5 596.509C1291 556.186 1200.17 478.369 1179 464.928L1016.5 429.911H903.5Z" fill="#101010" fill-opacity="0.8" stroke="#101010" stroke-opacity="0.8"/>
<path d="M857 763.639C853.833 767.706 850.4 776.16 862 777.433L854 812.451L834.5 851.182" stroke="#101010" stroke-opacity="0.8"/>
<path d="M862.581 766.963C861.92 766.963 861.258 766.963 860.597 766.963C859.806 766.963 860.316 766.939 860.882 767.025C861.21 767.075 861.537 767.123 861.842 767.266C862.18 767.424 862.336 767.794 862.672 767.926C862.88 768.008 863.097 768.078 863.32 768.078C863.646 768.078 862.814 767.638 862.536 767.459C862.233 767.263 861.979 766.954 861.621 766.867C861.095 766.739 860.559 766.712 860.04 766.537C859.9 766.49 858.89 766.471 858.898 766.495C859.242 767.498 862.137 767.087 863.048 767.087" stroke="#101010" stroke-opacity="0.8" stroke-width="2" stroke-linecap="round"/>
<path d="M880.67 770.802C883.839 770.802 886.953 770.926 890.123 770.926" stroke="#101010" stroke-opacity="0.8" stroke-width="2" stroke-linecap="round"/>
<path d="M882.887 778.356C884.54 778.356 886.193 778.356 887.846 778.356C888.428 778.356 889.009 778.356 889.59 778.356C890.15 778.356 889.817 776.792 890.589 776.746C891.041 776.72 891.689 776.889 892.08 776.622C892.397 776.406 892.492 776.02 892.741 775.755C893.237 775.229 894.079 775.017 894.706 774.765C896.11 774.201 898.079 774.517 899.575 774.517" stroke="#101010" stroke-opacity="0.8" stroke-width="2" stroke-linecap="round"/>
<path d="M907.394 774.889C907.125 774.889 906.927 775.406 906.927 775.687C906.927 776.095 906.832 776.185 906.668 776.498C906.6 776.629 906.257 777.453 906.162 777.482C905.725 777.615 905.175 777.443 904.723 777.496C903.81 777.604 903.845 778.916 904.126 779.663C904.255 780.004 904.695 781.947 904.01 781.947" stroke="#101010" stroke-opacity="0.8" stroke-width="2" stroke-linecap="round"/>
<path d="M861.903 788.784C861.903 791.955 861.535 794.978 861.535 798.155" stroke="#101010" stroke-opacity="0.8" stroke-width="2" stroke-linecap="round"/>
<path d="M836.557 858.022C835.78 858.206 834.176 861.61 833.816 862.252C833.074 863.572 832.469 864.844 831.812 866.168C831.28 867.24 830.992 868.461 830.515 869.569C830.201 870.299 829.844 870.832 829.45 871.516C829.084 872.152 828.937 873.134 828.786 873.854C828.518 875.133 828.039 876.108 827.468 877.244C827.197 877.784 826.958 878.339 826.646 878.855C826.345 879.354 826.349 879.94 826.097 880.455C825.944 880.769 825.598 881.023 825.549 881.384C825.424 882.311 824.518 883.106 823.957 883.778C823.462 884.372 823.25 885.111 822.808 885.714C822.502 886.131 822.335 886.778 822.175 887.269C821.968 887.906 821.582 888.241 821.416 888.947C821.248 889.66 820.595 890.168 820.235 890.805C819.824 891.532 819.252 892.428 818.611 892.908C818.473 893.012 818.502 893.317 818.4 893.468C817.723 894.479 816.964 895.412 816.334 896.466C815.972 897.072 815.581 898.091 815.016 898.491C814.602 898.784 814.325 899.661 814.014 900.114C813.572 900.757 813.35 901.55 812.939 902.217C811.88 903.933 810.781 905.643 809.638 907.297C808.98 908.25 808.04 909.047 807.635 910.172C807.314 911.063 807.16 911.681 806.581 912.399C806.297 912.749 806.411 913.185 806.296 913.607C806.05 914.508 805.289 915.255 804.788 916.001C804.134 916.977 803.594 917.652 803.154 918.754C802.88 919.441 802.474 920.49 802.015 921.059C801.42 921.796 800.538 922.551 800.223 923.464C799.868 924.489 799.358 925.545 798.873 926.507C797.663 928.911 796.283 930.941 795.752 933.634C795.352 935.663 794.044 937.914 794.044 939.99" stroke="#101010" stroke-opacity="0.8" stroke-width="2" stroke-linecap="round"/>
<path d="M793.285 940.594C792.837 942.072 792.323 943.223 792.03 944.711C791.694 946.412 791.277 948.341 790.712 949.97C790.491 950.606 790.423 951.266 790.248 951.917C789.892 953.24 789.261 954.406 788.73 955.654C787.945 957.494 787.283 959.386 786.494 961.225C785.739 962.987 784.577 964.485 784.133 966.372C783.921 967.269 783.45 967.702 783.405 968.722C783.363 969.681 783.227 972.38 782.456 973.13C781.983 973.59 781.965 974.438 781.697 975.043C781.193 976.179 780.834 977.364 780.347 978.5C779.43 980.642 778.447 982.959 777.353 984.99C776.769 986.075 776.422 987.228 775.782 988.324C774.848 989.924 774.759 991.781 774.074 993.516C773.882 994.001 773.464 994.393 773.367 994.892C773.222 995.635 773.046 996.386 772.703 997.062C772.183 998.087 771.598 998.892 771.364 1000.05C771.055 1001.58 770.608 1003.01 770.088 1004.48C769.54 1006.02 768.463 1007.56 768.275 1009.22C768.093 1010.82 768.232 1012.49 768.232 1014.1C768.232 1015.57 767.702 1017.09 767.326 1018.49C767.01 1019.66 767.134 1021.14 766.904 1022.36" stroke="#101010" stroke-opacity="0.8" stroke-width="2" stroke-linecap="round"/>
<path d="M767.158 1022.78C767.442 1025.19 767.277 1027.81 766.548 1030.32C766.157 1031.67 764.709 1034.42 765.16 1035.51C765.539 1036.42 766.252 1038.21 764.993 1038.57C762.087 1039.41 763.076 1040.95 762.551 1043.46C762.24 1044.94 761.663 1046.75 761.663 1048.23" stroke="#101010" stroke-opacity="0.8" stroke-width="2" stroke-linecap="round"/>
<path d="M788.641 981.962C787.17 982.352 786.913 987.146 786.671 988.559C786.143 991.641 784.818 993.823 783.396 996.541C781.015 1001.09 781.647 1004.07 781.647 1009" stroke="#101010" stroke-opacity="0.8" stroke-width="2" stroke-linecap="round"/>
<path d="M931 780.086C917.667 782.209 887.9 786.135 875.5 784.861L846.5 862.855C834.333 884.255 808.7 932.36 803.5 953.582" stroke="#101010" stroke-opacity="0.8"/>
<path d="M794.5 986.478C790.334 999.388 782.2 1028.07 783 1039.53" stroke="#101010" stroke-opacity="0.8"/>
<path d="M778.5 1063.41L782.5 1148.3C775.333 1164.93 760.3 1188.2 757.5 1148.3V1067.12" stroke="#101010" stroke-opacity="0.8"/>
<path d="M775.672 1131.1C775.974 1133.43 774.938 1134.69 774.181 1136.7C773.894 1137.46 773.401 1138.04 773.341 1138.89C773.311 1139.34 773.449 1139.94 773.282 1140.36C772.85 1141.45 773.3 1142.74 773.105 1143.88C772.808 1145.61 772.052 1147.23 772.052 1149.05C772.052 1149.92 772.052 1150.79 772.052 1151.66C772.052 1152.09 772.241 1153.2 771.933 1153.48C771.308 1154.05 771.22 1155.56 770.561 1155.73" stroke="#101010" stroke-opacity="0.8" stroke-width="2" stroke-linecap="round"/>
<path d="M763.746 1130.42C764.236 1132.76 764.598 1135.38 764.598 1137.79C764.598 1138.34 764.311 1140.1 764.811 1140.36" stroke="#101010" stroke-opacity="0.8" stroke-width="2" stroke-linecap="round"/>
<path d="M863.721 777.433C857.721 771.491 856.554 765.761 856.721 763.639L930.721 780.617C927.121 781.466 891.555 783.27 875.221 785.392C875.221 802.901 795.221 957.827 792.221 975.866C789.821 990.298 784.221 1041.3 781.721 1065V1152.55C772.921 1178.44 761.054 1168.29 756.221 1159.97C756.054 1146.36 755.821 1105.96 756.221 1053.33C756.621 1000.7 808.721 899.111 834.721 854.896C846.888 831.551 869.721 783.376 863.721 777.433Z" fill="#101010" fill-opacity="0.8"/>
<path d="M936 664.039L979.323 639.485L1011 660.162L973.733 682.992L936 664.039Z" fill="#101010" fill-opacity="0.8"/>
<path d="M1252.5 1228.42C1243.17 1279 1227.3 1396.61 1238.5 1462.4C1249.7 1528.19 1182.5 1635.19 1147.5 1680.46" stroke="#101010" stroke-opacity="0.8" stroke-width="6"/>
<path d="M1073 1329.23C1043.83 1361.24 988 1448.71 998 1542.51C976 1600.88 922.6 1723.86 885 1748.91" stroke="#101010" stroke-opacity="0.8" stroke-width="6"/>
<ellipse cx="1150.5" cy="1196.05" rx="30.5" ry="32.3647" fill="#DAA520"/>
<path d="M1245.5 1512.7C1094.64 2004.84 611.5 1770.13 744 1507.5C496.254 1585.72 258.684 1553.85 101 2089H1941L1843.24 1888.82L1665.16 1704.85L1450.33 1567.73L1245.5 1454.44L1236 1506.97C1243.17 1514.44 1248.8 1503.39 1249.34 1502.26C1249.11 1502.78 1247.92 1505.55 1245.5 1512.7Z" fill="#101010" fill-opacity="0.8"/>
<path d="M1285 1478.85C1174 2004.64 614 1883.67 722 1521.29" stroke="#090909" stroke-width="3"/>
<path d="M1253.5 1422.61C1314 1914.97 655 2557.49 731 1500.07" stroke="#101010" stroke-opacity="0.8" stroke-width="16"/>
<path d="M676.563 1027.8C677.115 1032.18 681.116 1035.29 685.499 1034.74C689.883 1034.19 692.989 1030.19 692.437 1025.8L676.563 1027.8ZM589.302 883.65C611.82 891.719 664.496 931.974 676.563 1027.8L692.437 1025.8C679.704 924.681 623.514 878.913 594.698 868.588L589.302 883.65Z" fill="#B3831D" fill-opacity="0.65"/>
</g>
<path d="M1368.5 768.5C1426.83 961.167 1555.7 1366.8 1604.5 1448" stroke="#550000" stroke-width="31" stroke-linecap="round"/>
<path d="M1493.5 698.5C1445.33 717.167 1339.4 761 1301 787" stroke="#550000" stroke-width="31" stroke-linecap="round"/>
<path d="M1274.5 496C1309.5 554 1403.7 675.1 1500.5 695.5" stroke="#550000" stroke-width="31" stroke-linecap="round"/>
<path d="M467.505 1362.43C467.74 1373.19 476.659 1381.73 487.426 1381.5C498.193 1381.26 506.731 1372.34 506.495 1361.57L467.505 1362.43ZM447.505 447.426L467.505 1362.43L506.495 1361.57L486.495 446.574L447.505 447.426Z" fill="#550000"/>
<path d="M212 1350C212 1360.77 220.73 1369.5 231.5 1369.5C242.27 1369.5 251 1360.77 251 1350H212ZM251 1350V482H212V1350H251Z" fill="#550000"/>
<path d="M463.524 823.864C470.077 832.411 482.317 834.028 490.864 827.476C499.411 820.923 501.028 808.683 494.476 800.136L463.524 823.864ZM192.524 470.364L463.524 823.864L494.476 800.136L223.476 446.636L192.524 470.364Z" fill="#550000"/>
<path d="M851.5 927C831.167 1075.67 784.6 1385.8 761 1437" stroke="#550000" stroke-width="34" stroke-linecap="round"/>
<path d="M486 774C559.667 877.333 728.2 1150.1 785 1336.5" stroke="#550000" stroke-width="34" stroke-linecap="round"/>
<path d="M792 783.5L478.5 769.5" stroke="#550000" stroke-width="34" stroke-linecap="round"/>
<path d="M708 466.5C658.5 553.167 543.3 735.1 478.5 769.5" stroke="#550000" stroke-width="34" stroke-linecap="round"/>
<path d="M847.5 619C792.334 591.167 683.8 518.7 691 451.5" stroke="#550000" stroke-width="34" stroke-linecap="round"/>
<path d="M1231.5 570.5C1177.5 568.167 1064.2 545.8 1043 475C1044.5 516.167 1004.3 617.6 831.5 694C932.5 892 1138.9 1306.7 1156.5 1381.5C1178.5 1475 1160.5 956.5 1267.5 725C1176.5 746.5 986 781.7 952 750.5" stroke="#550000" stroke-width="31" stroke-linecap="round"/>
<path d="M1272 485.5L1336.5 1433.5" stroke="#550000" stroke-width="32" stroke-linecap="round"/>
<path d="M1629.5 511C1624.67 608.667 1580.3 812.3 1441.5 845.5C1537.5 1001.33 1737.1 1342.3 1767.5 1459.5C1775.17 1283.17 1806.4 908.8 1870 822C1783 772.167 1613.1 640.2 1629.5 511Z" stroke="#550000" stroke-width="48" stroke-linecap="round"/>
<path d="M1021.5 433.197C976 440.658 939 478 926.5 509C1014.67 545.667 1219 633.197 1261 675.197C1303 717.197 1301.17 872.03 1295 944.197V1385.7C1688.2 1293.7 1688.5 929.03 1639.5 758.197C1505.9 394.597 1177 407.697 1021.5 433.197Z" fill="#0E0603" stroke="#0E0603" stroke-width="3"/>
<path d="M1304.5 1203.5L1068 1185.5L712 1339.5L746.5 1386L773 1435.5L789.5 1526L712 1615.5L912.5 1839.5L1367.5 1681L1285.5 1509L1304.5 1203.5Z" fill="#3E1E13"/>
<path d="M818 601.5C861.6 545.1 919.5 519.333 943 513.5C1220.6 513.5 1285.33 587.5 1283 624.5L1185.5 722.5C1199.9 743.3 1217.5 825.167 1224.5 863.5C1224.5 945.1 1198.5 1007.17 1185.5 1028L1212 1097C1233.2 1085.4 1293.83 1060.17 1321.5 1049C1452.7 1039.4 1456.5 1138.33 1442 1189C1424 1248.6 1289.5 1260.17 1224.5 1258.5C1153.3 1265.3 1168.83 1208.67 1185.5 1179.5C1137.1 1208.3 1119.67 1253.83 1117 1273C1071.4 1356.6 985 1355.17 947.5 1344C896.3 1326 767.833 1336.5 710 1344C593.2 1327.2 533 1286.67 517.5 1268.5C486.7 1242.1 504.667 1201.83 517.5 1185V1082.5C499.1 1045.3 525.167 1016 540.5 1006C528.1 967.2 545.667 939.5 556 930.5L604.5 908.5L580 874C577.2 849.2 589.5 821.333 596 810.5L657.5 792.5C670.7 780.9 712.667 761.667 732 753.5L735 709.5V690L748 656.5L818 601.5Z" fill="#3E1E13"/>
<path d="M710 1344C593.2 1327.2 533 1286.67 517.5 1268.5C486.7 1242.1 504.667 1201.83 517.5 1185V1082.5C499.1 1045.3 525.167 1016 540.5 1006C528.1 967.2 545.667 939.5 556 930.5L604.5 908.5L580 874C577.2 849.2 589.5 821.333 596 810.5L657.5 792.5C670.7 780.9 712.667 761.667 732 753.5L735 709.5V690L748 656.5L818 601.5C861.6 545.1 919.5 519.333 943 513.5C1220.6 513.5 1285.33 587.5 1283 624.5L1185.5 722.5C1199.9 743.3 1217.5 825.167 1224.5 863.5C1224.5 945.1 1198.5 1007.17 1185.5 1028L1212 1097C1233.2 1085.4 1293.83 1060.17 1321.5 1049C1452.7 1039.4 1456.5 1138.33 1442 1189C1424 1248.6 1289.5 1260.17 1224.5 1258.5C1153.3 1265.3 1168.83 1208.67 1185.5 1179.5C1137.1 1208.3 1119.67 1253.83 1117 1273C1071.4 1356.6 985 1355.17 947.5 1344C896.3 1326 767.833 1336.5 710 1344ZM710 1344C727.833 1354.17 766.5 1392.7 778.5 1465.5C781 1507.17 797.3 1615.1 842.5 1713.5" stroke="#422617" stroke-width="7"/>
<path d="M1274.5 833L1214 802C1233.6 852.8 1199.5 954.833 1180 999.5L1185.5 1047.5L1214 1099.5L1298 1058V944.5L1274.5 833Z" fill="#3E1E13"/>
<path d="M848.5 684C848.5 657.6 870.5 647 881.5 645C1021.5 690.6 1069.5 753.333 1076 779C1037.2 719.8 908.167 691 848.5 684Z" fill="#0E0603" stroke="#0E0603" stroke-width="5.1304"/>
<path d="M990.558 689.265C985.818 691.011 981.407 693.526 976.712 695.392C969.476 698.269 961.772 699.597 954.145 700.96C942.541 703.035 932.728 707.307 922.151 712.067" stroke="#0E0603" stroke-width="3" stroke-linecap="round"/>
<path d="M1000.1 683.962C998.874 684.967 997.181 685.075 995.684 685.405C988.876 686.908 982.24 689.062 975.475 690.738C969.838 692.133 964.05 693.507 958.211 693.507" stroke="#0E0603" stroke-width="3" stroke-linecap="round"/>
<path d="M974.119 683.431H981.543" stroke="#34130B" stroke-width="3" stroke-linecap="round"/>
<path d="M970.938 680.25C971.944 683.604 976.595 683.962 979.422 683.962" stroke="#0E0603" stroke-width="3" stroke-linecap="round"/>
<path d="M933.288 697.219C932.239 698.151 929.415 698.444 928.103 698.81C926.059 699.379 923.453 700.401 921.356 700.401C920.12 700.401 915.93 700.394 915.081 700.96C914.729 701.195 914.737 702.159 913.461 702.492C912.611 702.714 911.896 703.052 911.016 703.052" stroke="#0E0603" stroke-width="3" stroke-linecap="round"/>
<path d="M905.712 699.87H919.5" stroke="#0E0603" stroke-width="3" stroke-linecap="round"/>
<path d="M878.138 644.19C876.078 644.465 878.984 645.251 879.729 645.251C880.878 645.251 882.027 645.251 883.176 645.251C885.385 645.251 887.595 645.251 889.804 645.251" stroke="#34130B" stroke-width="3" stroke-linecap="round"/>
<path d="M890.334 648.433C893.611 649.889 898.96 648.963 902.531 648.963" stroke="#34130B" stroke-width="3" stroke-linecap="round"/>
<path d="M910.485 656.387H923.742" stroke="#0E0603" stroke-width="3" stroke-linecap="round"/>
<path d="M927.454 664.872H942.302" stroke="#0E0603" stroke-width="3" stroke-linecap="round"/>
<path d="M930.105 661.159C930.212 660.31 931.578 660.629 932.227 660.629" stroke="#0E0603" stroke-width="3" stroke-linecap="round"/>
<path d="M963.514 676.007C963.6 674.629 964.522 674.947 965.635 674.947" stroke="#0E0603" stroke-width="3" stroke-linecap="round"/>
<path d="M846.321 682.371C847.828 682.559 847.381 685.667 847.381 686.613C847.381 689.297 850.993 689.24 853.214 689.795" stroke="#0E0603" stroke-width="3" stroke-linecap="round"/>
<path d="M853.745 685.022C855.938 686.184 859.257 689.789 860.108 691.916" stroke="#0E0603" stroke-width="3" stroke-linecap="round"/>
<path d="M775.431 680.587L752.384 680.743L738.014 683.662L725.515 681.333C727.757 675.798 732.612 664.44 734.096 663.289C735.58 662.139 756.293 659.995 766.464 659.068C776.205 663.662 776.501 675.329 775.431 680.587Z" fill="#0E0603" stroke="#0E0603" stroke-width="5.1304"/>
<path d="M641 818.5C671.333 829 734.9 854.1 746.5 870.5" stroke="#34130B" stroke-width="3"/>
<path d="M760.5 873C783.5 894.5 785.1 960.5 679.5 924.5" stroke="#34130B" stroke-width="3"/>
<path d="M643.5 878C649.1 880.8 672.5 898.5 683.5 907L677.5 912C665 915.333 637.9 917 629.5 897C621.1 877 635.333 876 643.5 878Z" fill="#2D0E08" stroke="#34130B" stroke-width="3"/>
<path d="M593.664 864.486C596.931 866.391 595.083 875.718 601.5 881.5L604.5 891C597.207 893.267 590.397 891.015 585.496 877.411C580.596 863.806 588.899 863.126 593.664 864.486Z" fill="#2D0E08" stroke="#34130B" stroke-width="3"/>
<path d="M613.5 901C603.667 888.333 584.1 859.4 584.5 845" stroke="#34130B" stroke-width="5"/>
<g filter="url(#filter2_f_315_111)">
<path d="M746 768.5L828 744L815.5 768.5L781 794.5L754 825.5L761 860.5L707 831L647 812.348L746 768.5Z" fill="#1D0E08" fill-opacity="0.29"/>
</g>
<path d="M555 931.5C559.697 932.258 571.944 936.914 574.848 943.823C574.848 943.779 574.87 943.829 574.92 944C575.171 944.635 575.367 945.302 575.5 946C575.571 946.373 575.635 946.714 575.694 947.026C597.297 939.265 646.78 945.055 673.5 1030L690.5 1071.5C591.485 1108.59 536.899 1092.82 516.895 1076.78C516.93 1076.85 516.965 1076.93 517 1077C535 1115 520.833 1089.17 511.5 1071.5C512.881 1073.21 514.675 1075 516.895 1076.78C499.11 1038.9 527.199 1013.48 543.5 1005.5C535 993.167 530.5 960.5 555 931.5Z" fill="url(#paint1_linear_315_111)"/>
<path d="M574.92 944C572.154 936.994 559.737 932.264 555 931.5C530.5 960.5 535 993.167 543.5 1005.5M574.92 944C575.171 944.635 575.367 945.302 575.5 946C576.666 952.122 576.078 949.746 575.5 947.096M574.92 944C574.678 943.166 575.086 945.201 575.5 947.096M575.5 947.096C597 939.231 646.7 944.8 673.5 1030L690.5 1071.5M690.5 1071.5L644 1041M690.5 1071.5C580.5 1112.7 525.333 1088.67 511.5 1071.5C520.833 1089.17 535 1115 517 1077C499 1039 527.167 1013.5 543.5 1005.5M644 1041C622.667 1015 575.6 971.5 558 1005.5M644 1041C615.833 1033.5 559.2 1015.9 558 1005.5M558 1005.5H543.5" stroke="#2D0E08" stroke-width="5"/>
<path d="M640 1032C619.879 1019.3 575.109 998.231 557 1015.56C571.923 1020.43 609.416 1030.54 640 1032Z" fill="#D5D5D5" stroke="#D4D4D4" stroke-width="4"/>
<path d="M887.5 765L883 787.5C893.333 796.5 928.8 815.5 988 819.5" stroke="#0E0603" stroke-width="3"/>
<path d="M848.447 791.107L884.55 788.146C893.868 806.573 955.055 816.867 985.027 819.776C984.747 819.372 984.863 819.335 985.573 819.829C985.392 819.812 985.21 819.794 985.027 819.776C986.509 821.916 999.081 834.36 993.043 832.892C933.437 835.941 871.81 806.306 848.447 791.107Z" fill="url(#paint2_linear_315_111)"/>
<path d="M1180 721.5L1255.5 659C1340.5 756.5 1300.33 966.333 1292 1056.5L1248.5 1076.5C1237.5 1020.5 1206.5 878.8 1214.5 846C1222.5 813.2 1198.5 756.5 1180 721.5Z" fill="url(#paint3_linear_315_111)"/>
<path d="M945.5 510.5L1276.5 667.5C1333 629.5 1242.17 556.167 1221 543.5L1058.5 510.5H945.5Z" fill="#0E0603" stroke="black"/>
<path d="M899 825C895.833 828.833 892.4 836.8 904 838L896 871L876.5 907.5" stroke="black"/>
<path d="M904.581 828.133C903.92 828.133 903.258 828.133 902.597 828.133C901.806 828.133 902.316 828.11 902.882 828.191C903.21 828.238 903.537 828.283 903.842 828.418C904.18 828.567 904.336 828.916 904.672 829.041C904.88 829.118 905.097 829.183 905.32 829.183C905.646 829.183 904.814 828.769 904.536 828.6C904.233 828.415 903.979 828.124 903.621 828.042C903.095 827.922 902.559 827.896 902.04 827.731C901.9 827.687 900.89 827.669 900.898 827.692C901.242 828.637 904.137 828.25 905.048 828.25" stroke="white" stroke-width="2" stroke-linecap="round"/>
<path d="M922.67 831.751C925.839 831.751 928.953 831.867 932.123 831.867" stroke="white" stroke-width="2" stroke-linecap="round"/>
<path d="M924.887 838.869C926.54 838.869 928.193 838.869 929.846 838.869C930.428 838.869 931.009 838.869 931.59 838.869C932.15 838.869 931.817 837.395 932.589 837.352C933.041 837.327 933.689 837.487 934.08 837.236C934.397 837.032 934.492 836.668 934.741 836.419C935.237 835.923 936.079 835.722 936.706 835.485C938.11 834.954 940.079 835.252 941.575 835.252" stroke="white" stroke-width="2" stroke-linecap="round"/>
<path d="M949.394 835.602C949.125 835.602 948.927 836.09 948.927 836.354C948.927 836.739 948.832 836.823 948.668 837.119C948.6 837.242 948.257 838.019 948.162 838.046C947.725 838.171 947.175 838.009 946.723 838.059C945.81 838.16 945.845 839.397 946.126 840.101C946.255 840.422 946.695 842.254 946.01 842.254" stroke="white" stroke-width="2" stroke-linecap="round"/>
<path d="M903.903 848.697C903.903 851.685 903.535 854.534 903.535 857.528" stroke="white" stroke-width="2" stroke-linecap="round"/>
<path d="M878.557 913.946C877.78 914.118 876.176 917.327 875.816 917.931C875.074 919.176 874.469 920.374 873.812 921.622C873.28 922.633 872.992 923.783 872.515 924.827C872.201 925.515 871.844 926.017 871.45 926.662C871.084 927.261 870.937 928.187 870.786 928.865C870.518 930.071 870.039 930.99 869.468 932.06C869.197 932.569 868.958 933.092 868.646 933.579C868.345 934.048 868.349 934.6 868.097 935.086C867.944 935.382 867.598 935.621 867.549 935.961C867.424 936.835 866.518 937.584 865.957 938.218C865.462 938.777 865.25 939.474 864.808 940.042C864.502 940.435 864.335 941.045 864.175 941.508C863.968 942.108 863.582 942.423 863.416 943.089C863.248 943.76 862.595 944.239 862.235 944.839C861.824 945.525 861.252 946.369 860.611 946.822C860.473 946.919 860.502 947.207 860.4 947.349C859.723 948.302 858.964 949.181 858.334 950.175C857.972 950.746 857.581 951.706 857.016 952.083C856.602 952.359 856.325 953.186 856.014 953.612C855.572 954.218 855.35 954.966 854.939 955.594C853.88 957.211 852.781 958.823 851.638 960.381C850.98 961.279 850.04 962.03 849.635 963.091C849.314 963.93 849.16 964.513 848.581 965.189C848.297 965.52 848.411 965.931 848.296 966.328C848.05 967.177 847.289 967.881 846.788 968.584C846.134 969.504 845.594 970.14 845.154 971.178C844.88 971.826 844.474 972.814 844.015 973.35C843.42 974.045 842.538 974.757 842.223 975.617C841.868 976.583 841.358 977.578 840.873 978.485C839.663 980.75 838.283 982.663 837.752 985.201C837.352 987.113 836.044 989.235 836.044 991.19" stroke="white" stroke-width="2" stroke-linecap="round"/>
<path d="M835.285 991.76C834.837 993.153 834.323 994.237 834.03 995.64C833.694 997.243 833.277 999.061 832.712 1000.6C832.491 1001.2 832.423 1001.82 832.248 1002.43C831.892 1003.68 831.261 1004.78 830.73 1005.95C829.945 1007.69 829.283 1009.47 828.494 1011.2C827.739 1012.86 826.577 1014.27 826.133 1016.05C825.921 1016.9 825.45 1017.31 825.405 1018.27C825.363 1019.17 825.227 1021.71 824.456 1022.42C823.983 1022.85 823.965 1023.65 823.697 1024.22C823.193 1025.29 822.834 1026.41 822.347 1027.48C821.43 1029.5 820.447 1031.68 819.353 1033.6C818.769 1034.62 818.422 1035.71 817.782 1036.74C816.848 1038.25 816.759 1040 816.074 1041.63C815.882 1042.09 815.464 1042.46 815.367 1042.93C815.222 1043.63 815.046 1044.34 814.703 1044.97C814.183 1045.94 813.598 1046.7 813.364 1047.79C813.055 1049.23 812.608 1050.58 812.088 1051.97C811.54 1053.42 810.463 1054.87 810.275 1056.44C810.093 1057.94 810.232 1059.51 810.232 1061.03C810.232 1062.42 809.702 1063.85 809.326 1065.17C809.01 1066.27 809.134 1067.66 808.904 1068.81" stroke="white" stroke-width="2" stroke-linecap="round"/>
<path d="M809.158 1069.21C809.442 1071.49 809.277 1073.95 808.548 1076.32C808.157 1077.59 806.709 1080.18 807.16 1081.2C807.539 1082.06 808.252 1083.75 806.993 1084.09C804.087 1084.88 805.076 1086.34 804.551 1088.7C804.24 1090.1 803.663 1091.8 803.663 1093.2" stroke="white" stroke-width="2" stroke-linecap="round"/>
<path d="M830.641 1030.74C829.17 1031.11 828.913 1035.63 828.671 1036.96C828.143 1039.87 826.818 1041.92 825.396 1044.48C823.015 1048.77 823.647 1051.58 823.647 1056.22" stroke="white" stroke-width="2" stroke-linecap="round"/>
<path d="M973 840.5C959.667 842.5 929.9 846.2 917.5 845L888.5 918.5C876.333 938.667 850.7 984 845.5 1004" stroke="black"/>
<path d="M836.5 1035C832.334 1047.17 824.2 1074.2 825 1085" stroke="black"/>
<path d="M820.5 1107.5L824.5 1187.5C817.333 1203.17 802.3 1225.1 799.5 1187.5V1111" stroke="black"/>
<path d="M817.672 1171.29C817.974 1173.49 816.938 1174.67 816.181 1176.56C815.894 1177.28 815.401 1177.83 815.341 1178.64C815.311 1179.05 815.449 1179.62 815.282 1180.02C814.85 1181.05 815.3 1182.26 815.105 1183.33C814.808 1184.96 814.052 1186.49 814.052 1188.21C814.052 1189.03 814.052 1189.85 814.052 1190.67C814.052 1191.07 814.241 1192.12 813.933 1192.38C813.308 1192.92 813.22 1194.34 812.561 1194.5" stroke="white" stroke-width="2" stroke-linecap="round"/>
<path d="M805.746 1170.65C806.236 1172.86 806.598 1175.32 806.598 1177.59C806.598 1178.11 806.311 1179.77 806.811 1180.02" stroke="white" stroke-width="2" stroke-linecap="round"/>
<path d="M905.721 838C899.721 832.4 898.554 827 898.721 825L972.721 841C969.121 841.8 933.555 843.5 917.221 845.5C917.221 862 837.221 1008 834.221 1025C831.821 1038.6 826.221 1086.67 823.721 1109V1191.5C814.921 1215.9 803.054 1206.33 798.221 1198.5C798.054 1185.67 797.821 1147.6 798.221 1098C798.621 1048.4 850.721 952.667 876.721 911C888.888 889 911.721 843.6 905.721 838Z" fill="#A5A5A5" fill-opacity="0.12"/>
<path d="M978 731.139L1021.32 708L1053 727.485L1015.73 749L978 731.139Z" fill="#3E1E13"/>
<path d="M1294.5 1263C1285.17 1310.67 1269.3 1421.5 1280.5 1483.5C1291.7 1545.5 1224.5 1646.33 1189.5 1689" stroke="#34130B" stroke-width="6"/>
<path d="M1115 1358C1085.83 1388.17 1030 1470.6 1040 1559C1018 1614 964.6 1729.9 927 1753.5" stroke="#34130B" stroke-width="6"/>
<circle cx="1192.5" cy="1232.5" r="30.5" fill="#DAA520"/>
<path d="M1287.5 1530.9C1136.64 1994.69 653.5 1773.5 786 1526C538.254 1599.71 300.684 1569.68 143 2074H1983L1885.24 1885.36L1707.16 1711.98L1492.33 1582.77L1287.5 1476L1278 1525.5C1285.17 1532.54 1290.8 1522.12 1291.34 1521.07C1291.11 1521.55 1289.92 1524.17 1287.5 1530.9Z" fill="#2F2F2F"/>
<g filter="url(#filter3_f_315_111)">
<path d="M767 1415C763.8 1391 732.667 1361 717.5 1349C739.1 1335.8 885.5 1343.5 956 1349C894.333 1381 770.2 1439 767 1415Z" fill="#341A10" fill-opacity="0.79"/>
<path d="M767 1415C763.8 1391 732.667 1361 717.5 1349C739.1 1335.8 885.5 1343.5 956 1349C894.333 1381 770.2 1439 767 1415Z" stroke="#341A10"/>
</g>
<path d="M1327 1499C1216 1994.5 656 1880.5 764 1539" stroke="#090909" stroke-width="3"/>
<path d="M1295.5 1446C1356 1910 697 2515.5 773 1519" stroke="#DAA520" stroke-width="16"/>
<path d="M718.57 1074.06C719.156 1078.44 723.18 1081.51 727.56 1080.93C731.939 1080.34 735.015 1076.32 734.43 1071.94L718.57 1074.06ZM631.441 938.58C654.09 946.227 706.555 984.137 718.57 1074.06L734.43 1071.94C721.645 976.263 665.243 933.106 636.559 923.42L631.441 938.58Z" fill="#B3831D" fill-opacity="0.65"/>
<path d="M593.5 919.857H573C573 918.524 573 917.757 573 925.357" stroke="#8A601A" stroke-width="16"/>
</g>
<defs>
<filter id="filter0_f_315_111" x="94" y="327.5" width="1854" height="1768.5" filterUnits="userSpaceOnUse" color-interpolation-filters="sRGB">
<feFlood flood-opacity="0" result="BackgroundImageFix"/>
<feBlend mode="normal" in="SourceGraphic" in2="BackgroundImageFix" result="shape"/>
<feGaussianBlur stdDeviation="3.5" result="effect1_foregroundBlur_315_111"/>
</filter>
<filter id="filter1_f_315_111" x="598" y="670.686" width="195" height="137.623" filterUnits="userSpaceOnUse" color-interpolation-filters="sRGB">
<feFlood flood-opacity="0" result="BackgroundImageFix"/>
<feBlend mode="normal" in="SourceGraphic" in2="BackgroundImageFix" result="shape"/>
<feGaussianBlur stdDeviation="3.5" result="effect1_foregroundBlur_315_111"/>
</filter>
<filter id="filter2_f_315_111" x="640" y="737" width="195" height="130.5" filterUnits="userSpaceOnUse" color-interpolation-filters="sRGB">
<feFlood flood-opacity="0" result="BackgroundImageFix"/>
<feBlend mode="normal" in="SourceGraphic" in2="BackgroundImageFix" result="shape"/>
<feGaussianBlur stdDeviation="3.5" result="effect1_foregroundBlur_315_111"/>
</filter>
<filter id="filter3_f_315_111" x="709.627" y="1334.21" width="255.156" height="93.9563" filterUnits="userSpaceOnUse" color-interpolation-filters="sRGB">
<feFlood flood-opacity="0" result="BackgroundImageFix"/>
<feBlend mode="normal" in="SourceGraphic" in2="BackgroundImageFix" result="shape"/>
<feGaussianBlur stdDeviation="3.5" result="effect1_foregroundBlur_315_111"/>
</filter>
<linearGradient id="paint0_linear_315_111" x1="1285.5" y1="938.726" x2="1220.75" y2="973.108" gradientUnits="userSpaceOnUse">
<stop/>
<stop offset="1" stop-color="#0E0603" stop-opacity="0"/>
</linearGradient>
<linearGradient id="paint1_linear_315_111" x1="593.5" y1="1014" x2="592" y2="1151" gradientUnits="userSpaceOnUse">
<stop stop-color="#2E120C"/>
<stop offset="1" stop-color="#2E120C" stop-opacity="0"/>
</linearGradient>
<linearGradient id="paint2_linear_315_111" x1="942.565" y1="808.655" x2="933.603" y2="841.177" gradientUnits="userSpaceOnUse">
<stop stop-color="#0E0603"/>
<stop offset="0.58008" stop-color="#3E1E13"/>
<stop offset="0.84375" stop-color="#0E0603" stop-opacity="0"/>
</linearGradient>
<linearGradient id="paint3_linear_315_111" x1="1327.5" y1="990" x2="1264.5" y2="1025.5" gradientUnits="userSpaceOnUse">
<stop stop-color="#0E0603"/>
<stop offset="1" stop-color="#0E0603" stop-opacity="0"/>
</linearGradient>
<clipPath id="clip0_315_111">
<rect width="2050" height="2050" fill="white"/>
</clipPath>
</defs>
</svg>
