<svg width="2050" height="2050" viewBox="0 0 2050 2050" fill="none" xmlns="http://www.w3.org/2000/svg">
<g clip-path="url(#clip0_332_915)">
<rect width="2050" height="2050" fill="#750004"/>
<g filter="url(#filter0_f_332_915)">
<path d="M1757.99 941.731L1786.78 906.772L1737.43 890.321L1443.36 884.152L1408.4 851.249H1426.91V830.685L1383.72 814.234L1340.54 711.414V627.101L1315.86 592.142L1371.39 487.266L1293.24 367.994L1391.95 322.753C1363.98 252.013 1259.66 175.378 1210.99 145.902C1006.99 247.9 886.075 431.057 851.116 509.886L1108.17 830.685C1153.41 862.902 1244.71 931.038 1248 945.844C1251.29 960.65 1235.66 1016.45 1227.44 1042.49L1488.6 1157.65L1542.07 1007.54C1548.65 943.376 1688.76 936.933 1757.99 941.731Z" fill="black"/>
<path d="M1210.99 1472.28L1151.35 1202.89L1227.3 1092.76L1248 1044.55L1488.6 1151.48L1447.47 1258.42C1673.08 1251.84 1730.67 1373.58 1731.26 1435.27V1657.36L1210.99 1472.28Z" fill="black"/>
<path d="M1233.61 1083.62L1227.3 1092.76M1227.3 1092.76L1151.35 1202.89L1210.99 1472.28L1731.26 1657.36V1435.27C1730.67 1373.58 1673.08 1251.84 1447.47 1258.42L1488.6 1151.48L1248 1044.55L1227.3 1092.76Z" stroke="black" stroke-width="4.11281"/>
<path d="M1336.43 966.408H1570.86C1552.76 966.408 1538.64 1007.54 1533.84 1028.1L1317.92 1007.54V908.828L1336.43 966.408Z" fill="url(#paint0_linear_332_915)"/>
<path d="M1293.24 367.994L1398.12 324.81C1562.63 353.599 1609.93 429.686 1644.89 555.127V567.465L1659.28 596.255L1720.98 631.214L1714.81 637.383L1690.13 643.552L1677.79 655.891L1710.69 697.019L1704.52 701.132H1739.48H1770.33L1745.65 797.783V873.87L1778.55 849.193L1790.89 908.828L1749.77 898.546L1445.42 886.208L1408.4 859.475V838.911L1381.67 812.177L1342.6 713.47V629.157L1315.86 590.086L1371.39 487.266L1293.24 367.994Z" fill="black"/>
<path d="M1529.73 573.635L1577.03 575.691V592.142L1529.73 577.747V573.635Z" fill="url(#paint1_linear_332_915)" stroke="black" stroke-width="4.11281"/>
<path d="M1350.82 660.004L1260.34 795.726L1244.97 941.731C1214.58 907.183 1143.85 860.16 1112.28 840.967L974.5 660.004C1002.47 493.846 1260.34 367.309 1385.78 324.81L1295.3 365.938L1385.78 489.322L1332.31 592.142L1350.82 660.004Z" fill="black"/>
<path d="M1243.89 952.013L1244.97 941.731M1244.97 941.731L1260.34 795.726L1350.82 660.004L1332.31 592.142L1385.78 489.322L1295.3 365.938L1385.78 324.81C1260.34 367.309 1002.47 493.846 974.5 660.004L1112.28 840.967C1143.85 860.16 1214.58 907.183 1244.97 941.731Z" stroke="black" stroke-width="8.22562"/>
<path d="M1599.65 596.255C1604.58 591.32 1601.7 581.86 1599.65 577.747H1597.59H1579.08V592.142L1599.65 596.255Z" fill="black" stroke="black" stroke-width="4.11281"/>
<path d="M1651.06 575.691L1644.89 553.071C1636.66 484.524 1580.73 349.487 1398.12 324.81" stroke="black" stroke-width="8.22562"/>
<path d="M1605.82 569.522C1601.7 546.901 1591.83 500.427 1585.25 495.491C1578.67 490.556 1522.19 531.821 1494.77 553.07L1513.28 569.522M1605.82 573.635C1595.95 575.28 1550.98 572.949 1529.73 571.578V579.804L1603.76 600.368L1605.82 614.763L1568.8 602.424" stroke="black" stroke-width="4.11281"/>
<path d="M1593.48 452.307L1572.91 423.517C1535.08 416.937 1498.2 426.259 1484.49 431.743L1453.64 516.055L1496.83 442.025C1516.57 433.799 1569.49 445.452 1593.48 452.307Z" fill="black" stroke="black" stroke-width="4.11281"/>
<path d="M1282.96 641.496L1340.54 657.947L1356.99 719.639L1377.56 812.177C1380.3 803.266 1384.96 790.791 1381.67 812.177C1378.38 833.564 1363.85 840.282 1356.99 840.967L1291.19 824.516L1245.95 785.444L1221.27 742.26V705.244V670.286L1282.96 641.496Z" fill="black"/>
<path d="M1795.01 779.275L1772.39 783.388L1749.76 808.065L1807.34 822.459L1813.51 799.839L1807.34 783.388L1795.01 779.275Z" fill="black" stroke="black" stroke-width="3.70153"/>
<path d="M1790.89 699.075L1772.39 701.132L1733.31 801.895L1741.54 824.516L1768.27 781.331V795.726L1776.5 779.275C1781.3 779.96 1790.48 779.686 1788.84 773.106C1787.19 766.525 1796.38 747.058 1801.18 738.147L1797.06 707.301L1790.89 699.075Z" fill="black" stroke="black" stroke-width="3.70153"/>
<path d="M964.219 1749.9L1270.62 1449.66H1295.3L1723.03 1628.57H1484.49L1237.72 1885.62H668.096L832.609 1673.81L859.342 1717L964.219 1749.9Z" fill="black"/>
<path d="M1651.06 575.691L1642.83 565.409L1659.28 596.255L1708.64 629.157H1702.47L1692.19 641.496L1663.4 647.665C1675.05 658.633 1706.99 723.752 1708.64 715.526C1710.28 707.301 1744.97 649.721 1757.99 641.496C1759.64 629.98 1742.22 617.505 1733.31 612.706L1651.06 575.691Z" fill="black"/>
<path d="M1757.99 639.439C1757.99 654.52 1755.52 689.204 1737.43 699.075L1708.64 703.188L1710.54 694.962L1679.85 653.834C1688.07 663.431 1706.58 681.39 1714.81 676.455C1727.14 664.116 1753.06 639.439 1757.99 639.439Z" fill="black"/>
<path d="M1795.01 822.459L1747.71 808.065L1745.65 810.121V873.87L1778.55 851.249L1795.01 822.459Z" fill="black" stroke="black" stroke-width="3.70153"/>
<path d="M1747.71 676.455L1743.6 666.173L1720.98 688.793H1737.43L1747.71 676.455Z" fill="black" stroke="black" stroke-width="4.11281"/>
<path d="M1235.66 154.128C1266.92 154.128 1348.77 266.545 1385.78 322.753L1289.13 359.769L986.839 697.019L838.778 505.773C925.147 285.738 1196.59 154.128 1235.66 154.128Z" fill="black" stroke="black" stroke-width="8.22562"/>
<path d="M1223.33 1073.34C1236.35 1064.43 1250.06 1009.59 1250.06 960.239C1250.06 929.392 1159.58 867.015 1124.62 851.249L838.778 513.999C848.374 484.524 871.269 423.106 886.075 413.235" stroke="#F1D7C6" stroke-width="12.3384"/>
<path d="M1258.51 1452L1150.55 1160H1081.84L767.762 1513.34L853.644 1697.38L883.089 1741.54L892.904 1780.8C932.164 1820.06 1053.22 1764.45 1108.83 1731.73L1371.39 1513.34L1258.51 1452Z" fill="black" stroke="black" stroke-width="4.90752"/>
<path d="M802.115 1537.88L775.124 1532.97L846.282 1690.01L883.089 1734.18V1724.37L846.282 1660.57H851.19L846.282 1638.49L831.56 1618.86L802.115 1537.88Z" fill="black"/>
<path d="M1135.83 1267.97L1162.82 1216.44L1155.46 1164.91L1081.84 1189.45L770.216 1523.16L814.383 1537.88L821.745 1567.33L851.19 1599.23L863.459 1633.58L941.979 1707.19L927.256 1591.86L1081.84 1427.46L1108.83 1309.68L1118.65 1302.32L1126.01 1267.97V1255.7L1135.83 1267.97Z" fill="black"/>
<path d="M495.395 1020.14V921.988V892.543L510.118 850.829L534.655 833.653L770.216 747.771L821.745 733.049L892.904 747.771C897.811 777.217 909.099 837.088 914.988 841.014C920.877 844.94 982.875 919.534 1013.14 956.341L1076.94 1189.45L1096.57 1285.14L1045.04 1356.3L865.913 1491.26L740.771 1530.52L674.519 1496.17L539.563 1248.34V1167.36L490.488 1096.21L495.395 1020.14Z" fill="url(#paint2_linear_332_915)" stroke="black" stroke-width="4.90752"/>
<path d="M1113.74 951.433L941.979 865.552L1072.03 1182.09L1113.74 951.433Z" fill="black" stroke="black" stroke-width="4.90752"/>
<path d="M1175.09 966.156C1108.34 921.007 1075.3 984.968 1067.12 1022.59L1091.66 1049.58C1101.47 1059.4 1095.75 1066.76 1091.66 1069.21L1067.12 1081.48C1067.12 1111.75 1069.57 1174.73 1079.39 1184.54C1091.66 1196.81 1121.1 1174.73 1121.1 1177.18L1153 1155.1C1155.46 1154.28 1161.84 1151.66 1167.72 1147.73C1173.61 1143.81 1184.9 1111.75 1189.81 1096.21L1202.08 1069.21L1192.26 1022.59L1175.09 966.156Z" fill="black" stroke="black" stroke-width="4.90752"/>
<path d="M1177.54 1029.95L1182.45 1069.21L1167.72 1098.66L1138.28 1108.47C1134.19 1105.2 1124.54 1100.62 1118.65 1108.47" stroke="black" stroke-width="4.90752"/>
<path d="M1133.37 1206.62C1153 1198.77 1148.09 1164.09 1143.19 1147.73C1140.9 1137.92 1125.88 1143.64 1118.65 1147.73C1132.39 1185.03 1112.92 1191.08 1101.47 1189.45C1103.44 1205.15 1123.56 1207.44 1133.37 1206.62Z" fill="black" stroke="black" stroke-width="4.90752"/>
<rect x="670.128" y="1306.71" width="79.7381" height="32.3712" transform="rotate(-27.2822 670.128 1306.71)" fill="black"/>
<path d="M760.401 1287.6L821.745 1282.69L775.123 1348.94L681.881 1375.93C677.955 1372.01 655.707 1362.03 647.528 1358.76L662.251 1331.77L686.788 1321.95H711.326L760.401 1287.6Z" fill="black"/>
<path d="M605.814 1228.71C601.888 1220.86 607.45 1204.17 610.722 1196.81L627.898 1209.08L652.436 1231.16L627.898 1253.25L615.629 1245.88C613.993 1243.43 609.74 1236.56 605.814 1228.71Z" fill="black"/>
<path d="M637.713 1233.62L647.528 1228.71L622.99 1209.08L627.898 1228.71L637.713 1233.62Z" fill="black" stroke="black" stroke-width="4.90752"/>
<path d="M657.343 1233.62L629.403 1208L645.074 1196.81L669.612 1172.27L726.048 1184.54L730.956 1199.26L723.595 1209.08L694.15 1216.44L679.427 1240.98L657.343 1233.62Z" fill="black"/>
<path d="M662.251 1162.46L613.175 1182.09H608.268L610.722 1196.81L625.444 1206.62L645.074 1201.72L669.612 1174.73H686.788L723.595 1182.09L728.502 1209.08L750.586 1182.09C760.401 1152.64 725.23 1137.1 706.418 1133.01L699.057 1130.56L703.964 1123.2L745.678 1091.3L713.78 1049.58L672.066 1037.31L662.251 1103.57L691.696 1135.47L703.964 1147.73L669.612 1167.36L662.251 1162.46Z" fill="black"/>
<path d="M679.427 1204.17V1196.81L694.149 1177.18L723.595 1184.54L728.502 1201.72C726.048 1204.17 719.178 1208.1 711.326 1204.17C703.474 1200.24 686.788 1202.53 679.427 1204.17Z" fill="black" stroke="black" stroke-width="4.90752"/>
<path d="M657.343 971.063C657.343 959.285 670.43 951.433 676.973 948.98L792.3 885.182C825.671 879.293 858.551 900.722 870.82 912.173C855.116 898.432 816.837 899.904 799.661 902.358C783.957 902.358 716.233 953.069 684.334 978.425C675.337 980.878 657.343 982.841 657.343 971.063Z" fill="black"/>
<path d="M500.303 939.165L510.118 1007.87L492.941 1093.75L539.563 1162.46L549.378 1169.82L546.924 1255.7L672.066 1478.99L696.603 1503.53L676.973 1493.71L546.924 1255.7L539.563 1162.46L492.941 1093.75L500.303 939.165Z" fill="black"/>
<path d="M701.511 1240.98C732.919 1235.09 794.754 1254.88 821.745 1265.51C829.597 1277.29 826.652 1285.96 821.745 1287.6L753.04 1292.51L723.595 1285.14C713.78 1293 697.421 1299.05 686.788 1299.87C675.01 1301.83 676.973 1312.14 676.973 1321.95L647.528 1361.21C610.231 1331.77 639.349 1281.05 657.343 1260.61H684.334L701.511 1240.98Z" fill="black"/>
<path d="M900.265 774.763L485.58 887.636C463.496 534.295 1175.08 519.572 1123.56 941.618L900.265 816.477V774.763Z" fill="black" stroke="black" stroke-width="4.90752"/>
<path d="M897.811 870.459V816.477C977.967 850.829 1137.79 946.526 1126.01 946.526C1114.23 946.526 1099.02 962.884 1094.11 968.61L1003.32 912.173L897.811 870.459Z" fill="black"/>
<path d="M755.494 1044.68C767.762 1041.4 793.772 1035.35 799.661 1037.31C807.022 1039.77 853.644 1029.95 858.551 1025.05" stroke="black" stroke-width="4.90752"/>
<path d="M-156 1997L719.506 1869.17H1077.32L1630.49 1542.2H1885.49V2584.8H300L-156 1997Z" fill="black"/>
</g>
<path d="M1922.5 941.731L1955.41 912.941L1901.94 890.321L1607.87 884.152L1572.91 851.249H1591.42V830.685L1548.24 814.234L1505.05 711.414V627.101L1480.38 592.142L1535.9 487.266L1457.76 367.994L1556.46 322.753C1528.5 252.013 1424.17 175.378 1375.5 145.902C1171.5 247.9 1050.59 431.057 1015.63 509.886L1272.68 830.685C1317.92 862.902 1409.22 931.038 1412.51 945.844C1415.8 960.65 1400.18 1016.45 1391.95 1042.49L1653.11 1157.65L1706.58 1007.54C1713.16 943.376 1853.27 936.933 1922.5 941.731Z" fill="#4A201C"/>
<path d="M1375.5 1472.28L1315.86 1202.89L1391.82 1092.76L1412.51 1044.55L1653.11 1151.48L1611.99 1258.42C1837.59 1251.84 1895.18 1373.58 1895.77 1435.27V1657.36L1375.5 1472.28Z" fill="#010101"/>
<path d="M1398.12 1083.62L1391.82 1092.76M1391.82 1092.76L1315.86 1202.89L1375.5 1472.28L1895.77 1657.36V1435.27C1895.18 1373.58 1837.59 1251.84 1611.99 1258.42L1653.11 1151.48L1412.51 1044.55L1391.82 1092.76Z" stroke="black" stroke-width="4.11281"/>
<path d="M1500.94 966.408H1735.37C1717.27 966.408 1703.15 1007.54 1698.35 1028.1L1482.43 1007.54V908.828L1500.94 966.408Z" fill="url(#paint3_linear_332_915)"/>
<path d="M1457.76 367.994L1562.63 324.81C1727.14 353.599 1774.44 429.686 1809.4 555.127V567.465L1823.8 596.255L1885.49 631.214L1879.32 637.383L1854.64 643.552L1885.49 672.342L1875.21 697.019L1869.04 701.132H1904H1934.84L1910.16 797.783V873.87L1943.07 849.193L1955.41 908.828L1914.28 898.546L1609.93 886.208L1572.91 859.475L1560.58 849.193L1572.91 832.741L1546.18 812.177L1507.11 713.47V629.157L1480.38 590.086L1535.9 487.266L1457.76 367.994Z" fill="#4A211D"/>
<path d="M1694.24 573.635L1741.54 575.691V592.142L1694.24 577.747V573.635Z" fill="url(#paint4_linear_332_915)" stroke="#150C0D" stroke-width="4.11281"/>
<path d="M1515.33 660.004L1424.85 795.726L1409.48 941.731C1379.09 907.183 1308.36 860.16 1276.79 840.967L1139.01 660.004C1166.98 493.846 1424.85 367.309 1550.29 324.81L1459.81 365.938L1550.29 489.322L1496.83 592.142L1515.33 660.004Z" fill="#1D1412"/>
<path d="M1408.4 952.013L1409.48 941.731M1409.48 941.731L1424.85 795.726L1515.33 660.004L1496.83 592.142L1550.29 489.322L1459.81 365.938L1550.29 324.81C1424.85 367.309 1166.98 493.846 1139.01 660.004L1276.79 840.967C1308.36 860.16 1379.09 907.183 1409.48 941.731Z" stroke="#1D1412" stroke-width="8.22562"/>
<path d="M1764.16 596.255C1769.1 591.32 1766.22 581.86 1764.16 577.747H1762.1H1743.6V592.142L1764.16 596.255Z" fill="#150C0D" stroke="#150C0D" stroke-width="4.11281"/>
<path d="M1815.57 575.691L1809.4 553.071C1801.17 484.524 1745.24 349.486 1562.63 324.81" stroke="#622F24" stroke-width="8.22562"/>
<path d="M1770.33 569.522C1766.22 546.901 1756.35 500.427 1749.76 495.491C1743.18 490.556 1686.7 531.821 1659.28 553.07L1677.79 569.522M1770.33 573.635C1760.46 575.28 1715.49 572.949 1694.24 571.578V579.804L1768.27 600.368L1770.33 614.763L1733.31 602.424" stroke="#150C0D" stroke-width="4.11281"/>
<path d="M1757.99 452.307L1737.43 423.517C1699.59 416.937 1662.71 426.259 1649 431.743L1618.16 516.055L1661.34 442.025C1681.08 433.799 1734 445.452 1757.99 452.307Z" fill="#150C0D" stroke="#150C0D" stroke-width="4.11281"/>
<path d="M1447.47 641.496L1505.05 657.947L1521.5 719.639L1542.07 812.177C1544.81 803.266 1549.47 790.791 1546.18 812.177C1542.89 833.564 1528.36 840.282 1521.5 840.967L1455.7 824.516L1410.46 785.444L1385.78 742.26V705.244V670.286L1447.47 641.496Z" fill="#4A211D"/>
<path d="M1959.52 779.275L1936.9 783.388L1914.28 808.065L1971.86 822.459L1978.03 799.839L1971.86 783.388L1959.52 779.275Z" fill="#774C55" stroke="#774C55" stroke-width="3.70153"/>
<path d="M1955.41 699.075L1936.9 701.132L1910.16 808.065L1914.28 803.952L1932.78 781.331L1945.12 766.937L1941.01 779.275C1945.81 779.96 1954.99 779.686 1953.35 773.106C1951.7 766.525 1960.89 747.058 1965.69 738.147L1961.57 707.301L1955.41 699.075Z" fill="#4F202B" stroke="#4F202B" stroke-width="3.70153"/>
<path d="M1128.73 1749.9L1308 1476L1459.81 1449.66L1887.54 1628.57H1649L1402.23 1885.62H832.609L997.121 1673.81L1023.85 1717L1128.73 1749.9Z" fill="#010101"/>
<path d="M1815.57 575.691L1807.34 565.409L1823.8 596.255L1885.49 629.157L1881.37 637.383L1856.7 641.496L1844.36 653.834C1856.01 664.802 1879.73 684.68 1881.37 676.455C1883.02 668.229 1909.48 649.722 1922.5 641.496C1924.15 629.98 1906.74 617.505 1897.83 612.706L1815.57 575.691Z" fill="#622F24"/>
<path d="M1922.5 639.439C1922.5 654.52 1920.04 689.204 1901.94 699.075L1873.15 703.188L1875.05 694.962L1844.36 653.834C1852.58 663.431 1871.09 681.39 1879.32 676.455C1891.66 664.116 1917.57 639.439 1922.5 639.439Z" fill="#50271E"/>
<path d="M1959.52 822.459L1912.22 808.065L1910.16 810.121V873.87L1943.07 851.249L1959.52 822.459Z" fill="#50271E" stroke="#522525" stroke-width="3.70153"/>
<path d="M1912.22 676.455L1908.11 666.173L1885.49 688.793H1901.94L1912.22 676.455Z" fill="#3D1F1D" stroke="#3D1F1D" stroke-width="4.11281"/>
<path d="M1400.18 154.128C1431.43 154.128 1513.28 266.545 1550.29 322.753L1453.64 359.769L1151.35 697.019L1003.29 505.773C1089.66 285.738 1361.1 154.128 1400.18 154.128Z" fill="#1D1412" stroke="#1D1412" stroke-width="8.22562"/>
<path d="M1414.57 113C1453.64 148.644 1532.61 227.336 1535.9 256.948" stroke="#1D1412" stroke-width="8.22562"/>
<path d="M1387.84 1073.34C1400.86 1064.43 1414.57 1009.59 1414.57 960.239C1414.57 929.392 1324.09 867.015 1289.13 851.249L1003.29 513.999C1012.89 484.524 1035.78 423.106 1050.59 413.235" stroke="#F1D7C6" stroke-width="12.3384"/>
<path d="M1423.03 1452L1315.06 1160H1246.36L932.275 1513.34L1018.16 1697.38L1047.6 1741.54L1057.42 1780.8C1096.68 1820.06 1217.73 1764.45 1273.35 1731.73L1535.9 1513.34L1423.03 1452Z" fill="#49201C" stroke="#49201C" stroke-width="4.90752"/>
<path d="M966.627 1537.88L939.636 1532.97L1010.79 1690.01L1047.6 1734.18V1724.37L1010.79 1660.57H1015.7L1010.79 1638.49L996.072 1618.86L966.627 1537.88Z" fill="#F2C3A9" stroke="#F2C3A9" stroke-width="4.90752"/>
<path d="M1300.34 1267.97L1327.33 1216.44L1319.97 1164.91L1246.36 1189.45L934.728 1523.16L978.896 1537.88L986.257 1567.33L1015.7 1599.23L1027.97 1633.58L1106.49 1707.19L1091.77 1591.86L1246.36 1427.46L1273.35 1309.68L1283.16 1302.32L1290.52 1267.97V1255.7L1300.34 1267.97Z" fill="url(#paint5_linear_332_915)"/>
<path d="M659.907 1020.14V921.988V892.543L674.63 850.829L699.168 833.653L934.728 747.771L986.257 733.049L1057.42 747.771C1062.32 777.217 1073.61 837.088 1079.5 841.014C1085.39 844.94 1147.39 919.534 1177.65 956.341L1241.45 1189.45L1261.08 1285.14L1209.55 1356.3L1030.42 1491.26L905.283 1530.52L839.032 1496.17L704.075 1248.34V1167.36L655 1096.21L659.907 1020.14Z" fill="url(#paint6_linear_332_915)" stroke="#49201C" stroke-width="4.90752"/>
<path d="M1278.25 951.433L1106.49 865.552L1236.54 1182.09L1278.25 951.433Z" fill="#49201C" stroke="#49201C" stroke-width="4.90752"/>
<path d="M706.529 1118.29L718.798 1137.92C728.613 1120.25 753.968 1092.93 765.419 1081.48L789.956 1091.3L777.688 1015.23L735.974 1025.05L726.159 1052.04C694.751 1055.96 691.806 1102.75 694.26 1125.65L706.529 1118.29Z" fill="#301814" stroke="#301814" stroke-width="4.90752"/>
<path d="M1339.6 966.156C1272.86 921.007 1239.81 984.968 1231.63 1022.59L1256.17 1049.58C1265.99 1059.4 1260.26 1066.76 1256.17 1069.21L1231.63 1081.48C1231.63 1111.75 1234.09 1174.73 1243.9 1184.54C1256.17 1196.81 1285.62 1174.73 1285.62 1177.18L1317.51 1155.1C1319.97 1154.28 1326.35 1151.66 1332.24 1147.73C1338.13 1143.81 1349.41 1111.75 1354.32 1096.21L1366.59 1069.21L1356.77 1022.59L1339.6 966.156Z" fill="#49201C" stroke="#49201C" stroke-width="4.90752"/>
<path d="M1342.05 1029.95L1346.96 1069.21L1332.24 1098.66L1302.79 1108.47C1298.7 1105.2 1289.05 1100.62 1283.16 1108.47" stroke="#2D171A" stroke-width="4.90752"/>
<path d="M1248.81 1007.87L1251.26 1037.31V1039.77C1286.6 1061.36 1254.53 1078.21 1234.09 1083.94V1142.83L1243.9 1182.09L1248.81 1174.73L1251.26 1147.73L1280.71 1108.47H1261.08C1261.08 1098.66 1262.06 1080.99 1265.99 1088.84C1269.91 1096.7 1288.89 1085.57 1297.88 1079.03C1315.55 1067.25 1305.25 1034.86 1297.88 1020.14L1280.71 1005.42L1283.16 1000.51L1315.06 990.693L1332.24 1017.68L1334.69 985.786L1295.43 973.517L1248.81 1007.87Z" fill="#2D171A" stroke="#2D171A" stroke-width="4.90752"/>
<path d="M1297.88 1206.62C1317.51 1198.77 1312.61 1164.09 1307.7 1147.73C1305.41 1137.92 1290.39 1143.64 1283.16 1147.73C1296.9 1185.03 1277.44 1191.08 1265.99 1189.45C1267.95 1205.15 1288.07 1207.44 1297.88 1206.62Z" fill="#A57427" stroke="#A57427" stroke-width="4.90752"/>
<path d="M726.159 1145.28C732.048 1096.21 766.237 1087.21 782.595 1088.84L777.688 1130.56C760.021 1152.15 735.974 1149.37 726.159 1145.28Z" fill="#B9B9B9" stroke="#43170E" stroke-width="4.90752"/>
<path d="M787.503 1102.71C787.503 1111.72 780.768 1125.65 772.461 1125.65C760.428 1125.65 748.243 1114.05 748.243 1105.04C748.243 1096.03 764.154 1086.39 772.461 1086.39C780.768 1086.39 787.503 1093.7 787.503 1102.71Z" fill="url(#paint7_radial_332_915)"/>
<path d="M880.746 990.693L907.737 1032.41C907.737 1026.52 932.275 1005.42 944.543 995.601C966.627 985.786 1003.43 989.876 1023.06 993.147L1035.33 995.601L1030.42 966.156L1013.25 939.165L983.803 931.803L924.913 971.063H907.737C913.462 973.517 920.496 976.952 902.829 971.063C885.162 965.174 880.746 981.696 880.746 990.693Z" fill="url(#paint8_linear_332_915)"/>
<path d="M1027.97 996.528C939.516 982.026 912.594 1017.68 910.191 1037.31L948.65 1025.99C958.264 1025.99 991.115 1022.96 1006.34 1021.45L1027.97 996.528Z" fill="url(#paint9_linear_332_915)" stroke="#3D1919" stroke-width="4.90752"/>
<path d="M1008.34 1010.32C1008.34 1019.81 996.257 1025.05 981.35 1025.05C966.443 1025.05 954.358 1019.81 954.358 1010.32C954.358 1000.84 966.443 993.147 981.35 993.147C996.257 993.147 1008.34 1000.84 1008.34 1010.32Z" fill="url(#paint10_radial_332_915)"/>
<path d="M902.829 1528.07C893.014 1522.18 882.381 1494.53 878.292 1481.45L971.535 1454.45L1030.42 1469.18L1182.56 1346.49L1248.81 1280.24L1236.54 1223.8V1179.63L1243.9 1201.72L1258.62 1287.6L1209.55 1351.4L1032.88 1491.26C993.618 1505.98 912.644 1533.96 902.829 1528.07Z" fill="#431A18" stroke="#431A18" stroke-width="4.90752"/>
<rect x="834.64" y="1306.71" width="79.7381" height="32.3712" transform="rotate(-27.2822 834.64 1306.71)" fill="#D9D9D9"/>
<path d="M924.913 1287.6L986.257 1282.69L939.636 1348.94L846.393 1375.93C842.467 1372.01 820.219 1362.03 812.04 1358.76L826.763 1331.77L851.3 1321.95H875.838L924.913 1287.6Z" fill="#774C55" stroke="#774C55" stroke-width="4.90752"/>
<path d="M770.327 1228.71C766.401 1220.86 771.962 1204.17 775.234 1196.81L792.41 1209.08L816.948 1231.16L792.41 1253.25L780.142 1245.88C778.506 1243.43 774.253 1236.56 770.327 1228.71Z" fill="#4A201C"/>
<path d="M802.225 1233.62L812.04 1228.71L787.503 1209.08L792.41 1228.71L802.225 1233.62Z" fill="#3D1F1D" stroke="#3D1F1D" stroke-width="4.90752"/>
<path d="M821.855 1233.62L793.915 1208L809.587 1196.81L834.124 1172.27L890.561 1184.54L895.468 1199.26L888.107 1209.08L858.662 1216.44L843.939 1240.98L821.855 1233.62Z" fill="#49201C"/>
<path d="M826.763 1162.46L777.688 1182.09H772.78L775.234 1196.81L789.957 1206.62L809.587 1201.72L834.124 1174.73H851.301L888.107 1182.09L893.015 1209.08L915.098 1182.09C924.913 1152.64 889.743 1137.1 870.931 1133.01L863.569 1130.56L868.477 1123.2L910.191 1091.3L878.292 1049.58L836.578 1037.31L826.763 1103.57L856.208 1135.47L868.477 1147.73L834.124 1167.36L826.763 1162.46Z" fill="#4A201C"/>
<path d="M843.939 1204.17V1196.81L858.662 1177.18L888.107 1184.54L893.014 1201.72C890.561 1204.17 883.69 1208.1 875.838 1204.17C867.986 1200.24 851.3 1202.53 843.939 1204.17Z" fill="#3D1F1D" stroke="#3D1F1D" stroke-width="4.90752"/>
<path d="M780.142 1140.37L772.78 1169.82L765.419 1191.9L780.142 1140.37L785.594 1103.57L785.049 1133.01L780.142 1140.37Z" fill="#F1D7C6"/>
<path d="M782.595 1029.95L787.503 1091.3L785.594 1103.57M780.142 1140.37L772.78 1169.82L765.419 1191.9M780.142 1140.37L765.419 1191.9M780.142 1140.37L785.049 1133.01L785.594 1103.57M780.142 1140.37L785.594 1103.57M765.419 1191.9V1204.17V1233.62L774.007 1242.2L780.142 1245.88" stroke="#F1D7C6" stroke-width="4.90752"/>
<path d="M780.142 1012.78L792.41 1044.68V1069.21L787.503 1133.01L775.234 1177.18L826.763 1160L836.578 1162.46L866.023 1147.73L824.309 1103.57L836.578 1034.86L807.133 1044.68V1012.78L836.578 988.24L816.948 973.517V963.702" stroke="#49201C" stroke-width="3.43526"/>
<path d="M821.855 971.063C821.855 959.285 834.942 951.433 841.486 948.98L956.812 885.182C990.183 879.293 1023.06 900.722 1035.33 912.173C1019.63 898.432 981.35 899.904 964.173 902.358C948.469 902.358 880.746 953.069 848.847 978.425C839.85 980.878 821.855 982.841 821.855 971.063Z" fill="#281B13" stroke="#281B13" stroke-width="4.90752"/>
<path d="M775.234 1007.87C773.271 992.166 762.965 986.604 758.058 985.786C707.02 1001.49 684.445 1020.14 679.538 1027.5L669.723 1071.67L686.899 1047.13C704.566 1027.5 753.15 1012.78 775.234 1007.87Z" fill="#281B13" stroke="#281B13" stroke-width="4.90752"/>
<path d="M664.815 939.165L674.63 1007.87L657.454 1093.75L704.075 1162.46L713.89 1169.82L711.436 1255.7L836.578 1478.99L861.116 1503.53L841.486 1493.71L711.436 1255.7L704.075 1162.46L657.454 1093.75L664.815 939.165Z" fill="#F1D7C6"/>
<path d="M657.454 1093.75L674.63 1007.87L664.815 939.165L657.454 1093.75ZM657.454 1093.75L704.075 1162.46M704.075 1162.46L711.436 1255.7M704.075 1162.46L713.89 1169.82L711.436 1255.7M711.436 1255.7L841.486 1493.71L861.116 1503.53L836.578 1478.99L711.436 1255.7Z" stroke="#F1D7C6" stroke-width="4.90752"/>
<path d="M866.023 1240.98C897.431 1235.09 959.266 1254.88 986.257 1265.51C994.109 1277.29 991.165 1285.96 986.257 1287.6L917.552 1292.51L888.107 1285.14C878.292 1293 861.933 1299.05 851.301 1299.87C839.522 1301.83 841.486 1312.14 841.486 1321.95L812.04 1361.21C774.743 1331.77 803.861 1281.05 821.855 1260.61H848.847L866.023 1240.98Z" fill="url(#paint11_linear_332_915)"/>
<path d="M966.627 1454.45V1405.38C966.627 1395.56 951.905 1398.02 944.543 1400.47L873.384 1425.01L868.477 1461.81L878.292 1476.54L966.627 1454.45Z" fill="url(#paint12_linear_332_915)"/>
<circle cx="991.165" cy="1005.42" r="2.45376" fill="#D9D9D9"/>
<circle cx="750.696" cy="1113.38" r="2.45376" fill="#D9D9D9"/>
<path d="M1064.78 774.763L650.093 887.636C628.009 534.295 1339.6 519.572 1288.07 941.618L1064.78 816.477V774.763Z" fill="#1C1816" stroke="#1C1816" stroke-width="4.90752"/>
<path d="M1062.32 870.459V816.477C1142.48 850.829 1302.3 946.526 1290.52 946.526C1278.75 946.526 1263.53 962.884 1258.62 968.61L1167.84 912.173L1062.32 870.459Z" fill="url(#paint13_linear_332_915)"/>
<path d="M920.006 1044.68C932.275 1041.4 958.284 1035.35 964.173 1037.31C971.535 1039.77 1018.16 1029.95 1023.06 1025.05" stroke="#3E1B1C" stroke-width="4.90752"/>
<path d="M-50 2027L884.019 1869.17H1241.83L1795.01 1542.2H2050V2584.8H464.512L-50 2027Z" fill="#010101"/>
<path d="M1873.5 661.5C1884.17 676.5 1897 693.5 1897 676" stroke="#A57427" stroke-width="2"/>
<circle cx="1531.79" cy="822.46" r="26.7333" fill="#A57427"/>
<path d="M1434.5 1449.5L1546 1515L1326 1752.5L1154.5 1800.5H1043.5L985.5 1639L1389.5 1351L1434.5 1449.5Z" fill="black" stroke="black"/>
<path d="M1466 1451.5C1316 1739.33 1011 2196.6 991 1723" stroke="#A57427" stroke-width="6"/>
</g>
<defs>
<filter id="filter0_f_332_915" x="-176.564" y="125.338" width="2082.62" height="2480.02" filterUnits="userSpaceOnUse" color-interpolation-filters="sRGB">
<feFlood flood-opacity="0" result="BackgroundImageFix"/>
<feBlend mode="normal" in="SourceGraphic" in2="BackgroundImageFix" result="shape"/>
<feGaussianBlur stdDeviation="10.282" result="effect1_foregroundBlur_332_915"/>
</filter>
<linearGradient id="paint0_linear_332_915" x1="1459.81" y1="978.746" x2="1447.47" y2="1032.21" gradientUnits="userSpaceOnUse">
<stop/>
<stop offset="1" stop-opacity="0"/>
</linearGradient>
<linearGradient id="paint1_linear_332_915" x1="1556.46" y1="585.973" x2="1558.52" y2="571.578" gradientUnits="userSpaceOnUse">
<stop stop-color="#D9D9D9"/>
<stop offset="0.768775" stop-color="#545252"/>
</linearGradient>
<linearGradient id="paint2_linear_332_915" x1="576.369" y1="1228.71" x2="986.147" y2="1034.86" gradientUnits="userSpaceOnUse">
<stop offset="0.0217895"/>
<stop offset="0.468577"/>
<stop offset="1"/>
</linearGradient>
<linearGradient id="paint3_linear_332_915" x1="1624.32" y1="978.746" x2="1611.99" y2="1032.21" gradientUnits="userSpaceOnUse">
<stop stop-color="#3E1C17"/>
<stop offset="1" stop-color="#3E1C17" stop-opacity="0"/>
</linearGradient>
<linearGradient id="paint4_linear_332_915" x1="1720.98" y1="585.973" x2="1723.03" y2="571.578" gradientUnits="userSpaceOnUse">
<stop stop-color="#D9D9D9"/>
<stop offset="0.768775" stop-color="#545252"/>
</linearGradient>
<linearGradient id="paint5_linear_332_915" x1="1010.79" y1="1358.76" x2="1148.21" y2="1501.08" gradientUnits="userSpaceOnUse">
<stop stop-color="#25100B"/>
<stop offset="1" stop-color="#25100B" stop-opacity="0"/>
</linearGradient>
<linearGradient id="paint6_linear_332_915" x1="740.881" y1="1228.71" x2="1150.66" y2="1034.86" gradientUnits="userSpaceOnUse">
<stop offset="0.0217895" stop-color="#35120F"/>
<stop offset="0.468577" stop-color="#49201C"/>
<stop offset="1" stop-color="#49201C"/>
</linearGradient>
<radialGradient id="paint7_radial_332_915" cx="0" cy="0" r="1" gradientUnits="userSpaceOnUse" gradientTransform="translate(767.873 1106.02) rotate(90) scale(19.6301)">
<stop offset="0.424765" stop-color="#111111"/>
<stop offset="1" stop-color="#3D1919"/>
</radialGradient>
<linearGradient id="paint8_linear_332_915" x1="939.636" y1="993.147" x2="915.098" y2="944.072" gradientUnits="userSpaceOnUse">
<stop offset="0.0834195" stop-color="#39191C" stop-opacity="0.71"/>
<stop offset="1" stop-color="#39191C" stop-opacity="0"/>
</linearGradient>
<linearGradient id="paint9_linear_332_915" x1="971.535" y1="1007.87" x2="939.636" y2="973.517" gradientUnits="userSpaceOnUse">
<stop stop-color="#D9D9D9"/>
<stop offset="1" stop-color="#464646"/>
</linearGradient>
<radialGradient id="paint10_radial_332_915" cx="0" cy="0" r="1" gradientUnits="userSpaceOnUse" gradientTransform="translate(981.35 1010.32) rotate(86.4237) scale(78.6735 123.63)">
<stop/>
<stop offset="0.211155" stop-color="#4D2219"/>
</radialGradient>
<linearGradient id="paint11_linear_332_915" x1="866.023" y1="1290.05" x2="883.199" y2="1339.13" gradientUnits="userSpaceOnUse">
<stop stop-color="#4E202B"/>
<stop offset="0.852751" stop-color="#4E202B" stop-opacity="0.49"/>
</linearGradient>
<linearGradient id="paint12_linear_332_915" x1="846.393" y1="1459.36" x2="1040.24" y2="1412.74" gradientUnits="userSpaceOnUse">
<stop stop-color="#7B4046"/>
<stop offset="0.728496" stop-color="#7B4046" stop-opacity="0"/>
</linearGradient>
<linearGradient id="paint13_linear_332_915" x1="1177.65" y1="899.904" x2="1170.29" y2="914.627" gradientUnits="userSpaceOnUse">
<stop stop-color="#1C1816"/>
<stop offset="1" stop-color="#1C1816" stop-opacity="0.07"/>
</linearGradient>
<clipPath id="clip0_332_915">
<rect width="2050" height="2050" fill="white"/>
</clipPath>
</defs>
</svg>
